<?xml version="1.0" encoding="utf-8"?>
<!-- Generator: Adobe Illustrator 19.2.0, SVG Export Plug-In . SVG Version: 6.00 Build 0)  -->
<svg version="1.1" id="Layer_1" xmlns="http://www.w3.org/2000/svg" xmlns:xlink="http://www.w3.org/1999/xlink" x="0px" y="0px"
	 viewBox="0 0 170 170" style="enable-background:new 0 0 170 170;" xml:space="preserve">
<style type="text/css">
	.st0{fill:#F37321;}
</style>
<g>
	<path class="st0" d="M26.6,22l-3.1,0.3c-0.8,0.1-1.4,0.8-1.4,1.8c0.1,0.8,0.8,1.4,1.5,1.4c0.1,0,0.1,0,0.2,0l3.1-0.3
		c0.8-0.1,1.4-0.8,1.4-1.7C28.3,22.5,27.4,21.9,26.6,22z"/>
	<path class="st0" d="M49.5,19.3L43.7,20c-0.8,0.1-1.4,0.8-1.4,1.8c0.1,0.8,0.8,1.4,1.5,1.4c0.1,0,0.1,0,0.2,0l5.8-0.7
		c0.8-0.1,1.4-0.8,1.4-1.8C51.2,19.8,50.3,19.2,49.5,19.3z"/>
	<path class="st0" d="M60.9,18l-5.7,0.7c-0.8,0.1-1.4,0.8-1.4,1.7c0.1,0.8,0.8,1.4,1.5,1.4c0.1,0,0.1,0,0.2,0l5.7-0.7
		c0.8-0.1,1.4-0.8,1.4-1.7S61.8,17.9,60.9,18z"/>
	<path class="st0" d="M38,20.6l-5.7,0.7c-0.8,0.1-1.4,0.8-1.4,1.8c0.1,0.8,0.8,1.4,1.5,1.4c0.1,0,0.1,0,0.2,0l5.8-0.7
		c0.8-0.1,1.4-0.8,1.4-1.8C39.7,21.1,38.9,20.5,38,20.6z"/>
	<path class="st0" d="M66.9,20.4c0.1,0,0.1,0,0.2,0l5.8-0.7c0.8-0.1,1.4-0.8,1.4-1.8c-0.1-0.8-0.8-1.5-1.8-1.4l-5.8,0.7
		c-0.8,0.1-1.4,0.8-1.4,1.8C65.4,19.9,66.1,20.4,66.9,20.4z"/>
	<path class="st0" d="M78.3,19.2c0.1,0,0.1,0,0.2,0l3.1-0.3c0.8-0.1,1.4-0.8,1.4-1.7c-0.1-0.8-0.8-1.5-1.8-1.4L78,16.1
		c-0.8,0.1-1.4,0.8-1.4,1.8C76.9,18.6,77.5,19.2,78.3,19.2z"/>
	<path class="st0" d="M84.4,60.7l-3.1,0.3c-0.8,0.1-1.4,0.8-1.4,1.8c0.1,0.8,0.8,1.4,1.5,1.4c0.1,0,0.1,0,0.2,0l3.1-0.3
		c0.8-0.1,1.4-0.8,1.4-1.8C86,61.2,85.3,60.5,84.4,60.7z"/>
	<path class="st0" d="M116.9,57l-5.4,0.6c-0.8,0.1-1.4,0.8-1.4,1.7c0.1,0.8,0.8,1.4,1.5,1.4c0.1,0,0.1,0,0.2,0l5.4-0.6
		c0.8-0.1,1.4-0.8,1.4-1.8C118.5,57.5,117.7,56.8,116.9,57z"/>
	<path class="st0" d="M95.2,59.4L89.8,60c-0.8,0.1-1.4,0.8-1.4,1.8c0.1,0.8,0.8,1.4,1.5,1.4c0.1,0,0.1,0,0.2,0l5.4-0.6
		c0.8-0.1,1.4-0.8,1.4-1.8C96.9,60,96.1,59.4,95.2,59.4z"/>
	<path class="st0" d="M106,58.2l-5.4,0.6c-0.8,0.1-1.4,0.8-1.4,1.8c0.1,0.8,0.8,1.4,1.5,1.4c0.1,0,0.1,0,0.2,0l5.4-0.6
		c0.8-0.1,1.4-0.8,1.4-1.7C107.7,58.7,106.9,58.1,106,58.2z"/>
	<path class="st0" d="M122.7,59.4l3.1-0.3c0.8-0.1,1.4-0.8,1.4-1.7c-0.1-0.8-0.8-1.5-1.8-1.4l-3.1,0.3c-0.8,0.1-1.4,0.8-1.4,1.8
		c0.1,0.8,0.8,1.4,1.5,1.4C122.6,59.4,122.6,59.4,122.7,59.4z"/>
	<path class="st0" d="M168.4,91.9c0-0.1,0-0.2,0-0.2l-0.7-4.3c-0.2-0.8-0.9-1.4-1.8-1.3l-31.4,4.2c-1.3-17.7-2.8-34.2-2.8-34.5
		c0-0.1,0-0.1,0-0.2L131,52c-0.1-0.4-0.3-0.8-0.8-1l-3-1.8c-0.5-0.3-1.2-0.3-1.7,0.1l-1.9,1.4l-2.1-0.9c-0.5-0.3-1.1-0.2-1.5,0.2
		l-1.9,1.4l-2.1-0.9c-0.5-0.3-1.1-0.2-1.5,0.2l-1.9,1.4l-2.1-0.9c-0.5-0.3-1.1-0.2-1.5,0.2l-1.9,1.4l-2.1-0.9
		c-0.5-0.3-1.1-0.2-1.5,0.2l-1.9,1.4l-2.1-0.9c-0.5-0.3-1.1-0.2-1.5,0.2l-0.7,0.4c0-0.1,0-0.1,0-0.2c-3.9-19.8-7.9-36.6-8.1-37.4
		l-0.9-4.8c-0.1-0.4-0.3-0.8-0.8-1L83.6,7c-0.5-0.3-1.2-0.3-1.7,0.1l-2.7,2l-3.1-1.4c-0.5-0.3-1.1-0.2-1.5,0.2l-2.7,2L68.5,8
		c-0.5-0.3-1.1-0.2-1.5,0.2l-2.7,2l-3.1-1.4c-0.5-0.3-1.1-0.2-1.5,0.2l-2.7,2l-3.1-1.4c-0.5-0.3-1.1-0.2-1.5,0.2l-2.7,2l-3.1-1.4
		c-0.5-0.3-1.1-0.2-1.5,0.2l-2.7,2L39.3,11c-0.5-0.3-1.1-0.2-1.5,0.2l-2.7,2L32,11.8c-0.5-0.3-1.1-0.2-1.5,0.2l-2.7,2l-3.1-1.4
		c-0.5-0.3-1.1-0.2-1.5,0.2l-3.1,2.2L16.7,15c-0.8,0-1.5,0.7-1.5,1.6v3.2c-0.4,1.7-3.9,16.5-7.5,33.8c-5,24.8-7.6,42.8-7.7,53.5
		c-0.3,31,4.9,37.2,5.5,37.8c0.2,0.2,0.3,0.3,0.6,0.3l10.1,3.8c0.2,0.1,0.3,0.1,0.6,0.1l0,0l0,0l0,0l0,0c0.1,0,0.2,0,0.3,0l46.7-6.8
		c1.1,10,3.3,12.6,3.6,13c0.2,0.2,0.3,0.3,0.6,0.3l7.7,3c0.2,0.1,0.3,0.1,0.6,0.1l0,0l0,0l0,0l0,0c0.1,0,0.2,0,0.3,0l45.6-6.6
		c0.3,7.7,0.8,8.4,1.2,8.7c0.2,0.2,0.3,0.3,0.6,0.3l5.3,2c0.2,0.1,0.3,0.1,0.6,0.1c0.1,0,0.2,0,0.3,0l36.9-5.3c0.6-0.1,1-0.4,1.3-1
		c0.1-0.2,1.7-4.6,1.7-18.9C169.7,124.2,168.4,92.3,168.4,91.9z M20.2,145.7c3.1-5,8.1-16.3,8.1-36.4c0-42.2-9.3-86.4-10-89.5v-2.2
		l2.3-0.1c0.3,0,0.6-0.1,0.8-0.3l2.7-2l3.1,1.4c0.5,0.3,1.1,0.2,1.5-0.2l2.7-2l3.1,1.4c0.5,0.3,1.1,0.2,1.5-0.2l2.7-2l3.1,1.4
		c0.5,0.3,1.1,0.2,1.5-0.2l2.7-2l3.1,1.4c0.5,0.3,1.1,0.2,1.5-0.2l2.7-2l3.1,1.4c0.5,0.3,1.1,0.2,1.5-0.2l2.7-2l3.1,1.4
		c0.5,0.3,1.1,0.2,1.5-0.2l2.7-2l3.1,1.4c0.5,0.3,1.1,0.2,1.5-0.2l2.7-2l3.1,1.4c0.5,0.3,1.1,0.2,1.5-0.2l2.6-1.9l2.5,1.4l0.8,4.1
		c0,0,0,0,0,0.1c0.1,0.3,4,17,7.9,36.8l-0.2-0.1c-0.5-0.3-1.1-0.2-1.5,0.2l-1.9,1.4L88,52.2c-0.5-0.3-1.1-0.2-1.5,0.2l-1.9,1.4
		l-2.1-0.9c-0.5-0.3-1.1-0.2-1.5,0.2l-2.2,1.6l-2.5,0.1c-0.8,0-1.5,0.7-1.5,1.6v2.8c-0.8,3.4-11.4,47.6-11.6,66.8
		c-0.1,5.3,0.1,9.5,0.4,13.1L20.2,145.7z M78.6,155.5c1-3.6,2.5-11.1,2.5-25.3c0-32.6-3.1-68.7-3.2-70.5v-1.4h1.4
		c0.3,0,0.6-0.1,0.8-0.3l1.9-1.4l2.1,0.9c0.5,0.3,1.1,0.2,1.5-0.2l1.9-1.4l2.1,0.9c0.5,0.3,1.1,0.2,1.5-0.2l1.9-1.4l2.1,0.9
		c0.5,0.3,1.1,0.2,1.5-0.2l1.9-1.4l2.1,0.9c0.5,0.3,1.1,0.2,1.5-0.2l1.9-1.4l2.1,0.9c0.5,0.3,1.1,0.2,1.5-0.2l1.9-1.4l2.1,0.9
		c0.5,0.3,1.1,0.2,1.5-0.2l1.9-1.4l2.1,0.9c0.5,0.3,1.1,0.2,1.5-0.2l1.9-1.4l2.1,0.9c0.5,0.3,1.1,0.2,1.5-0.2l1.8-1.3l1.5,0.9
		l0.6,2.9c0.1,1.3,1.6,17.4,2.8,34.5l-2,0.3c-0.8,0.1-1.4,0.8-1.4,1.5v2c-0.3,2.1-6,34.7-6.1,48c0,2.6,0,4.8,0,6.7L78.6,155.5z
		 M165.2,155.2l-34.1,5V94l33.7-4.5l0.4,2.7c0.1,2,1.3,32.4,1.3,46.1C166.5,148.4,165.7,153.3,165.2,155.2z"/>
	<path class="st0" d="M137.6,94.6l-3.1,0.3c-0.8,0.1-1.4,0.9-1.4,1.8c0.1,0.8,0.8,1.4,1.5,1.4c0.1,0,0.2,0,0.2,0l3.1-0.3
		c0.8-0.1,1.4-0.8,1.4-1.8S138.4,94.4,137.6,94.6z"/>
	<path class="st0" d="M151.7,92.8l-7,0.8c-0.8,0.1-1.4,0.9-1.4,1.8c0.1,0.8,0.8,1.4,1.5,1.4c0.1,0,0.2,0,0.2,0l7-0.8
		c0.8-0.1,1.4-0.8,1.4-1.8C153.4,93.3,152.5,92.7,151.7,92.8z"/>
	<path class="st0" d="M161.9,91.6l-3.1,0.3c-0.8,0.1-1.4,0.9-1.4,1.8c0.1,0.8,0.8,1.4,1.5,1.4c0.1,0,0.2,0,0.2,0l3.1-0.3
		c0.8-0.1,1.4-0.8,1.4-1.8C163.6,92.1,162.7,91.4,161.9,91.6z"/>
</g>
</svg>
