<?xml version="1.0" encoding="utf-8"?>
<!-- Generator: Adobe Illustrator 19.2.0, SVG Export Plug-In . SVG Version: 6.00 Build 0)  -->
<svg version="1.1" id="Layer_1" xmlns="http://www.w3.org/2000/svg" xmlns:xlink="http://www.w3.org/1999/xlink" x="0px" y="0px"
	 viewBox="0 0 170 170" style="enable-background:new 0 0 170 170;" xml:space="preserve">
<style type="text/css">
	.st0{fill:#F37321;}
</style>
<path class="st0" d="M148,10.6l0.1,7.1c-14.6-0.8-24,3.2-30,9.4c-8.2-5.4-17.9-8.4-28.3-8.4c-17.6,0-33.2,8.8-42.6,22.2
	c-11.5,0.3-23.8,4-36.1,13.7l-5.4-6.8C-4,67,0.2,91,7.9,100.9c8.5-16.8,21.3-23.3,21.3-23.3l-5.7-7.2c2.8-2.6,8.1-5.6,15-8.2
	c-0.4,2.7-0.7,5.5-0.7,8.4c0,28.7,23.3,52,52,52c3.2,0,6.4-0.3,9.5-0.9c1.4,5.9,3.7,11.8,7.5,17.7l-9.4,2.6c0,0,8.1,10.9,24.8,16.8
	c8.5-13.1,11.2-26.5,11.2-26.5l-9.6,2.6c0.3-8.8-0.3-16.8-1.2-24c11.7-9.5,19.1-24,19.1-40.2c0-13.4-5.1-25.6-13.4-34.8
	c6.8-4,14-4.8,20-4.3l0.1,8.8c7.3-2,15.7-1.8,21.7,2.5C166,21.6,148,10.6,148,10.6z M135.4,70.6c0,12.8-5.4,24.5-13.9,32.7
	C117.2,81.6,109,70.1,109,70.1s-13.4,20.9-10.8,45.2c-2.7,0.5-5.5,0.8-8.4,0.8c-25.2,0-45.6-20.5-45.6-45.6c0-3.7,0.4-7.2,1.3-10.6
	C63.8,54.7,89,54,109.1,70.1c0,0-23.5-25.8-54.1-29.1c8.3-9.9,20.9-16.2,34.9-16.2c8.9,0,17.4,2.6,24.4,7.1
	c-9.8,15.6-5.1,38.2-5.1,38.2c2.5-15.3,7.7-24.8,14.1-30.6C130.7,47.8,135.4,58.7,135.4,70.6z"/>
</svg>
