<?xml version="1.0" encoding="utf-8"?>
<!-- Generator: Adobe Illustrator 19.2.0, SVG Export Plug-In . SVG Version: 6.00 Build 0)  -->
<svg version="1.1" id="Layer_1" xmlns="http://www.w3.org/2000/svg" xmlns:xlink="http://www.w3.org/1999/xlink" x="0px" y="0px"
	 viewBox="0 0 170 170" style="enable-background:new 0 0 170 170;" xml:space="preserve">
<style type="text/css">
	.st0{fill:#F37321;}
</style>
<g>
	<path class="st0" d="M167,50.5c0.3,0.8,0.4,1.7,0.4,2.5c0.1,1.4-0.1,2.7-0.5,3.9c-0.3,1.2-0.9,2.3-1.5,3.3c-1.2,2-2.7,3.4-4.2,4.6
		c-1.4,1.2-2.9,2-4.1,2.7c-0.9,0.5-1.8,0.9-2.5,1.3c-0.3-0.6-0.6-1.2-0.8-1.9c0.7-0.3,1.5-0.7,2.4-1.1c1.2-0.6,2.5-1.4,3.8-2.5
		c1.4-1,2.7-2.4,3.7-4.1c1.1-1.7,1.9-3.7,1.7-6c-0.1-2.2-1.1-4.6-2.9-6.5c-0.4-0.5-0.9-0.9-1.4-1.4c-0.5-0.4-1-0.8-1.6-1.3
		c-1.2-0.8-2.5-1.4-3.8-2c-2.7-1.2-5.8-2-8.9-2.5c-3.2-0.6-6.5-0.8-10-0.9c-6.9-0.2-14.3,0.5-21.7,2c-3.7,0.8-7.5,1.7-11.1,3
		c-1.9,0.6-3.7,1.3-5.5,2c-1.8,0.8-3.7,1.5-5.5,2.3c-3.7,1.5-7.4,3.2-11,4.9c-3.7,1.7-7.3,3.5-11,5.2s-7.5,3.4-11.4,4.5
		c-2.3,0.7-4.6,1.2-7,1.6c-12-8.3-25.3-14.6-37.9-14.6c-2.9,0-5.8,0.3-8.6,1c-5,1.3-5.5,5.4-5.5,5.4s-0.1,0.2-0.1,0.4
		c0,0.2-0.1,0.3-0.1,0.5c-0.3,1.4,0.1,3.6,0.3,4.2C6.7,79.6,8,97.7,7.9,105.8c0,0.4,0.7,3.9,10.5,5.3c24.9,3.4,46.6-4.1,64-12.5
		c0.1,0.3,0.2,0.5,0.3,0.8c0.5,2.7-1.1,6.1-0.1,8.6c1,2.5,4.6,3.6,6,5.7c1.4,2.2,1.2,5.9,3,7.7c1.9,1.9,5.6,1.5,7.7,3
		c2.2,1.4,3.2,5,5.7,6c2.5,1,5.9-0.6,8.6-0.1c2.6,0.5,5.1,3.4,7.9,3.4s5.3-2.9,7.9-3.4c2.7-0.5,6.1,1.1,8.6,0.1c2.5-1,3.6-4.6,5.7-6
		c2.2-1.4,5.9-1.1,7.7-3c1.9-1.9,1.5-5.6,3-7.7c1.4-2.2,5-3.2,6-5.7c1-2.5-0.6-5.9-0.1-8.6c0.5-2.6,3.4-5.1,3.4-7.9
		c0-0.3-0.1-0.7-0.2-1.1c2.5-4.3,4.6-10.2,5.8-18.4C170.5,66.3,171,57.7,167,50.5z M24,65.7c-3.8-0.2-7.6-0.6-11.2-1.3
		c-1.5-0.3-3.1-0.7-4.5-1.1c-2.8-2.2-3.5-4.2-3.5-5.4c0-1.7,1.2-2.5,2.6-3c2.3-0.6,4.8-0.9,7.4-0.9c5.5,0,15.2,2.4,24,7
		c2.2,1.2,4.5,2.5,6.8,3.9C38.2,65.7,30.9,66.1,24,65.7z M159.4,95.6c-0.7,1-1.4,2-1.5,3c-0.2,1,0,2.2,0.3,3.4
		c0.3,1.6,0.6,3.2,0,4.7c-0.6,1.4-2,2.3-3.3,3.1c-1,0.7-2,1.3-2.5,2.1c-0.5,0.8-0.8,2-1,3.1c-0.3,1.5-0.6,3.1-1.7,4.2
		c-1.1,1.1-2.6,1.4-4.2,1.7c-1.2,0.3-2.4,0.4-3.1,1c-0.8,0.5-1.4,1.5-2.1,2.5c-0.8,1.4-1.7,2.7-3.1,3.3c-1.4,0.6-3.1,0.3-4.7,0
		c-1.3-0.3-2.4-0.4-3.4-0.3c-0.9,0.2-2,0.8-3,1.5c-1.4,0.9-2.8,1.9-4.3,1.9c-1.5,0-3-0.9-4.4-1.9c-1-0.7-2-1.4-3-1.5
		c-1-0.2-2.2,0-3.4,0.3c-1.6,0.3-3.2,0.6-4.7,0c-1.4-0.6-2.3-2-3.1-3.3c-0.7-1-1.3-2-2.1-2.5c-0.8-0.5-2-0.8-3.1-1
		c-1.5-0.3-3.1-0.6-4.2-1.7c-1.1-1.1-1.4-2.6-1.7-4.2c-0.3-1.2-0.4-2.4-1-3.1c-0.5-0.8-1.5-1.4-2.5-2.1c-1.4-0.8-2.7-1.7-3.3-3.1
		c-0.6-1.4-0.3-3.1,0-4.7c0.3-1.3,0.4-2.4,0.3-3.4c-0.2-0.9-0.8-2-1.5-3c-0.9-1.4-1.9-2.8-1.9-4.3c0-1.6,0.9-3,1.9-4.4
		c0.7-1,1.4-2,1.5-3c0.2-1,0-2.2-0.3-3.4c-0.3-1.6-0.6-3.2,0-4.7s2-2.3,3.3-3.1c1-0.7,2-1.3,2.5-2.1c0.5-0.8,0.8-2,1-3.1
		c0.3-1.5,0.6-3.1,1.7-4.2c1.1-1.1,2.6-1.4,4.2-1.7c1.2-0.3,2.4-0.4,3.1-1c0.8-0.5,1.4-1.5,2.1-2.5c0.8-1.4,1.7-2.7,3.1-3.3
		c1.4-0.6,3.1-0.3,4.7,0c1.3,0.3,2.4,0.4,3.4,0.3c0.9-0.2,2-0.8,3-1.5c1.4-0.9,2.8-1.9,4.4-1.9c1.6,0,3,0.9,4.3,1.9
		c1,0.7,2,1.4,3,1.5c1,0.2,2.2,0,3.4-0.3c1.6-0.3,3.2-0.6,4.7,0c1.4,0.6,2.3,2,3.1,3.3c0.7,1,1.3,2,2.1,2.5c0.8,0.5,2,0.8,3.1,1
		c1.5,0.3,3.1,0.6,4.2,1.7c1.1,1.1,1.4,2.6,1.7,4.2c0.3,1.2,0.4,2.4,1,3.1c0.5,0.8,1.5,1.4,2.5,2.1c1.4,0.8,2.7,1.7,3.3,3.1
		c0.6,1.4,0.3,3.1,0,4.7c-0.3,1.3-0.4,2.4-0.3,3.4c0.2,0.9,0.8,2,1.5,3c0.9,1.4,1.9,2.8,1.9,4.4C161.3,92.9,160.3,94.3,159.4,95.6z"
		/>
	<path class="st0" d="M154.9,84.6c-0.3-1.2,0-2.5,0.3-3.7c0.3-1.4,0.5-2.7,0.1-3.7c-0.4-1-1.5-1.7-2.6-2.5c-1-0.7-2.1-1.4-2.7-2.3
		c-0.7-0.9-0.9-2.2-1.1-3.4c-0.3-1.4-0.5-2.6-1.3-3.4c-0.8-0.8-2-1-3.4-1.3c-1.2-0.3-2.5-0.5-3.4-1.1c-0.9-0.7-1.6-1.7-2.3-2.7
		c-0.8-1.2-1.4-2.2-2.5-2.6s-2.3-0.2-3.7,0.1c-1.3,0.3-2.5,0.5-3.7,0.3c-1.1-0.3-2.2-0.9-3.2-1.6c-1.2-0.8-2.3-1.5-3.5-1.5
		c-1.2,0-2.3,0.8-3.5,1.5c-1,0.7-2.1,1.4-3.2,1.6c-1.2,0.3-2.5,0-3.7-0.3c-1.4-0.3-2.7-0.5-3.7-0.1c-1,0.4-1.7,1.5-2.5,2.6
		c-0.7,1-1.4,2.1-2.3,2.7c-0.9,0.7-2.2,0.9-3.4,1.1c-1.4,0.3-2.6,0.5-3.4,1.3c-0.8,0.8-1,2-1.3,3.4c-0.3,1.2-0.5,2.5-1.1,3.4
		c-0.7,0.9-1.7,1.6-2.7,2.3c-1.2,0.8-2.2,1.4-2.6,2.5c-0.4,1-0.2,2.3,0.1,3.7c0.3,1.3,0.5,2.5,0.3,3.7c-0.3,1.1-0.9,2.2-1.6,3.2
		c-0.8,1.2-1.5,2.3-1.5,3.5c0,1.2,0.8,2.3,1.5,3.5c0.7,1,1.4,2.1,1.6,3.2c0.3,1.2,0,2.5-0.3,3.7c-0.3,1.4-0.5,2.7-0.1,3.7
		s1.5,1.7,2.6,2.5c1,0.7,2.1,1.4,2.7,2.3c0.7,0.9,0.9,2.2,1.1,3.4c0.3,1.4,0.5,2.6,1.3,3.4s2,1,3.4,1.3c1.2,0.3,2.5,0.5,3.4,1.1
		c0.9,0.7,1.6,1.7,2.3,2.7c0.8,1.2,1.4,2.2,2.5,2.6s2.3,0.2,3.7-0.1c0.8-0.2,1.8-0.3,2.6-0.3c0.3,0,0.7,0,1.1,0.1
		c1.1,0.3,2.2,0.9,3.2,1.6c1.2,0.8,2.3,1.5,3.5,1.5c1.2,0,2.3-0.8,3.5-1.5c1-0.7,2.1-1.4,3.2-1.6c1.2-0.3,2.5,0,3.7,0.3
		c1.4,0.3,2.7,0.5,3.7,0.1s1.7-1.5,2.5-2.6c0.7-1,1.4-2.1,2.3-2.7c0.9-0.7,2.2-0.9,3.4-1.1c1.4-0.3,2.6-0.5,3.4-1.3s1-2,1.3-3.4
		c0.3-1.2,0.5-2.5,1.1-3.4c0.7-0.9,1.7-1.6,2.7-2.3c1.2-0.8,2.2-1.4,2.6-2.5c0.4-1,0.2-2.3-0.1-3.7c-0.3-1.3-0.5-2.5-0.3-3.7
		c0.3-1.1,0.9-2.2,1.6-3.2c0.8-1.2,1.5-2.3,1.5-3.5c0-1.2-0.8-2.3-1.5-3.5C155.8,86.7,155.1,85.7,154.9,84.6z M150.6,83.9
		c0.1,1.1-0.2,2.3-0.8,3.2c-0.6,0.9-1.4,1.6-2.3,1.9c-0.9,0.1-1.8-0.3-2.6-0.9c-0.8-0.7-1.3-1.7-1.5-2.8c0.9-0.1,1.8,0.3,2.6,0.9
		c0.8,0.7,1.3,1.7,1.5,2.8c-0.1-1.1,0.2-2.3,0.8-3.2C148.9,84.9,149.7,84.2,150.6,83.9z M146.5,80.9c0.3-1.1,1-2,1.8-2.5
		c0.3,1.1,0.3,2.3-0.1,3.4c-0.3,1.1-1,2-1.8,2.5c-0.8,0.3-1.8,0.3-2.7-0.1c-0.9-0.4-1.6-1.3-2-2.2c0.8-0.3,1.8-0.3,2.7,0.1
		c0.9,0.4,1.6,1.3,2,2.2C146.1,83.2,146.1,82,146.5,80.9z M145,73.8c0.5,0.9,0.8,2,0.7,3.3c-0.1,1.2-0.5,2.3-1.2,3.1
		c-0.8,0.6-1.7,0.9-2.6,0.8c-0.9-0.2-1.8-0.7-2.4-1.5c0.8-0.6,1.7-0.9,2.6-0.8c0.9,0.2,1.8,0.7,2.4,1.5c-0.5-0.9-0.8-2-0.7-3.3
		C143.9,75.6,144.3,74.6,145,73.8z M98.1,73.8c0.7,0.8,1.1,1.8,1.2,3.1c0.1,1.2-0.2,2.4-0.7,3.3c0.6-0.8,1.4-1.4,2.4-1.5
		c0.9-0.2,1.9,0.2,2.6,0.8c-0.6,0.8-1.4,1.4-2.4,1.5c-0.9,0.2-1.9-0.2-2.6-0.8c-0.7-0.8-1.1-1.8-1.2-3.1
		C97.4,75.8,97.6,74.7,98.1,73.8z M94.7,78.4c0.8,0.5,1.4,1.4,1.8,2.5c0.3,1.1,0.3,2.3,0.1,3.4c0.4-1,1.1-1.8,2-2.2s1.9-0.4,2.7-0.1
		c-0.4,1-1.1,1.8-2,2.2c-0.9,0.4-1.9,0.4-2.7,0.1c-0.8-0.5-1.4-1.4-1.8-2.5C94.5,80.6,94.5,79.4,94.7,78.4z M94.7,85.8
		c0.6,0.9,0.8,2.1,0.8,3.2c0.2-1.1,0.7-2.1,1.5-2.8c0.8-0.7,1.7-1,2.6-0.9c-0.2,1.1-0.7,2.1-1.5,2.8c-0.8,0.7-1.7,1-2.6,0.9
		c-0.8-0.3-1.7-0.8-2.3-1.9c-0.6-0.9-0.8-2.1-0.8-3.2C93.4,84.2,94.1,84.9,94.7,85.8z M94.1,91.1c0.8,0.8,1.2,1.8,1.4,2.9
		c0-1.1,0.3-2.3,0.8-3.2c0.6-0.9,1.4-1.5,2.3-1.8c0,1.1-0.3,2.3-0.8,3.2c-0.6,0.9-1.4,1.5-2.3,1.8c-0.9,0-1.8-0.3-2.5-1.1
		c-0.8-0.8-1.2-1.8-1.4-2.9C92.4,90,93.3,90.4,94.1,91.1z M91.8,96.2c0.8-0.3,1.8-0.3,2.7,0.2c0.8,0.5,1.5,1.4,2,2.3
		c-0.3-1.1-0.3-2.3,0.2-3.4s1.1-2,1.9-2.5c0.3,1.1,0.3,2.3-0.2,3.4c-0.4,1.1-1.1,2-1.9,2.5c-0.8,0.3-1.8,0.3-2.7-0.2
		C92.8,98.1,92.1,97.3,91.8,96.2z M95.7,103.8c-0.9-0.2-1.8-0.8-2.4-1.6c0.8-0.6,1.7-0.8,2.6-0.7s1.8,0.8,2.4,1.6
		c-0.5-0.9-0.7-2.1-0.5-3.3c0.2-1.2,0.6-2.2,1.3-3c0.5,0.9,0.7,2.1,0.5,3.3c-0.2,1.2-0.6,2.2-1.3,3C97.5,103.7,96.6,104,95.7,103.8z
		 M98.7,108.2c-0.9,0.2-1.9-0.2-2.6-0.8c0.6-0.8,1.4-1.4,2.4-1.5s1.9,0.2,2.6,0.8c-0.7-0.8-1.1-1.8-1.2-3c-0.1-1.2,0.2-2.4,0.6-3.3
		c0.7,0.8,1.1,1.8,1.2,3c0.1,1.2-0.2,2.4-0.6,3.3C100.4,107.5,99.6,108,98.7,108.2z M104.4,109.2c-0.4,1-1.1,1.8-2,2.3
		c-0.9,0.4-1.9,0.4-2.7,0.1c0.4-1,1.1-1.8,2-2.3C102.6,108.9,103.6,108.9,104.4,109.2c-0.8-0.5-1.4-1.4-1.8-2.5
		c-0.3-1.1-0.3-2.3-0.1-3.4c0.8,0.5,1.4,1.4,1.8,2.5C104.8,106.9,104.8,108.1,104.4,109.2z M103.9,78.3c-0.9-0.2-1.8-0.8-2.4-1.6
		c-0.5-0.9-0.7-2.1-0.5-3.3c0.2-1.2,0.6-2.2,1.3-3c0.5,0.9,0.7,2.1,0.5,3.3c-0.2,1.2-0.6,2.2-1.3,3c0.8-0.6,1.7-0.8,2.6-0.7
		c0.9,0.2,1.8,0.8,2.4,1.6C105.8,78.2,104.9,78.5,103.9,78.3z M137.5,120.1c-2.7-0.1-7.1-0.2-13-0.2c-5.6,0-10.9,0.1-13,0.2
		c-0.4,0-0.4-0.3-0.4-0.5c0-0.3,0.2-1.2,0.8-1.4l0.9-0.1c-1.6,0-2.9,0.1-3.7,0.1c-0.2,0-0.2-0.1-0.2-0.3c0-0.3,0.2-1,0.6-1.2
		l5.5-0.8c0.6-0.1,1.3-0.3,1.3-1c0.1-2.7-0.2-18.5-0.3-21.8c-0.1-4.4-0.3-16.2-0.5-21.1l-5.2,1c-0.5,0.1-1.1-0.7-1.3-1.2
		c-0.2-0.3-0.1-0.6,0.2-0.8l1-0.4l-2.5,0.5c-0.3,0.1-0.8-0.6-1-1c-0.1-0.2-0.1-0.3,0.1-0.5l21.2-8.6c0.2-0.1,0.3-0.1,0.5-0.1
		c0.5,0,0.8,0.4,0.8,0.8c0,0.2,0,0.6,0,1.2l1.2-0.5c0.3-0.1,0.4-0.1,0.6-0.1c0.6,0,0.9,0.4,0.9,1.1c0,0.4-0.1,3.1-0.3,7
		c-0.3,7.9-0.7,19.9-0.7,23.4c-0.1,5.1-0.2,12.2-0.3,17c-0.1,2.5-0.1,4.5-0.1,5.4l4.2,0.5c0.3,0.1,0.6,0.8,0.6,1.2c0,0,0,0,0,0.1
		l2,0.3c0.4,0.2,0.8,0.9,0.8,1.4C138,119.9,138,120.1,137.5,120.1z M136.5,77.6c0.6-0.8,1.4-1.4,2.4-1.6c0.9-0.2,1.9,0.1,2.6,0.7
		c-0.7-0.8-1.2-1.8-1.3-3c-0.2-1.2,0.1-2.4,0.5-3.3c0.7,0.8,1.2,1.8,1.3,3c0.2,1.2-0.1,2.4-0.5,3.3c-0.6,0.8-1.4,1.4-2.4,1.6
		C138.2,78.5,137.3,78.2,136.5,77.6z M140.6,111.4c-0.9-0.4-1.6-1.3-2-2.3c-0.3-1.1-0.3-2.3,0.1-3.4c0.3-1.1,1-2,1.8-2.5
		c0.3,1.1,0.3,2.3-0.1,3.4c-0.3,1.1-1,2-1.8,2.5c0.8-0.3,1.8-0.3,2.7,0.1c0.9,0.4,1.6,1.3,2,2.3C142.5,112,141.6,112,140.6,111.4z
		 M144.4,108.2c-0.9-0.2-1.8-0.7-2.4-1.5c-0.5-0.9-0.8-2.1-0.6-3.3c0.1-1.2,0.6-2.2,1.2-3c0.5,0.9,0.8,2.1,0.6,3.3
		c-0.1,1.2-0.6,2.3-1.2,3c0.8-0.6,1.7-0.9,2.6-0.8s1.8,0.7,2.4,1.5C146.3,108,145.4,108.4,144.4,108.2z M147.4,103.8
		c-0.9,0.2-1.9-0.1-2.6-0.7c-0.7-0.8-1.2-1.8-1.3-3c-0.2-1.2,0.1-2.4,0.5-3.3c0.7,0.8,1.2,1.8,1.3,3c0.2,1.2-0.1,2.4-0.5,3.3
		c0.6-0.8,1.4-1.4,2.4-1.6c0.9-0.2,1.9,0.1,2.6,0.7C149.2,103,148.4,103.6,147.4,103.8z M149.4,98.6c-0.8,0.5-1.9,0.5-2.7,0.2
		c-0.8-0.5-1.4-1.4-1.9-2.5c-0.4-1.1-0.4-2.3-0.2-3.4c0.8,0.5,1.4,1.4,1.9,2.5c0.4,1.1,0.4,2.3,0.2,3.4c0.4-1,1.1-1.9,2-2.3
		c0.8-0.5,1.9-0.5,2.7-0.2C150.9,97.3,150.2,98.1,149.4,98.6z M150.2,92.9c-0.8,0.8-1.7,1.1-2.5,1.1c-0.8-0.3-1.7-0.8-2.3-1.8
		s-0.8-2.1-0.8-3.2c0.8,0.3,1.7,0.8,2.3,1.8c0.6,0.9,0.8,2.1,0.8,3.2c0.2-1.1,0.7-2.1,1.4-2.9c0.8-0.8,1.7-1.1,2.5-1.1
		C151.4,91.1,151,92.2,150.2,92.9z"/>
	<path class="st0" d="M114.1,70l-2,0.3l-2.9,1.2c0,0-0.1,0,0,0.2c0.2,0.5,0.6,1,0.8,0.9l0,0l5.3-1c0-0.2,0-0.4,0-0.5
		C115.2,70.4,114.7,69.9,114.1,70z"/>
	<path class="st0" d="M131.4,63.5c0-0.3-0.2-0.7-0.6-0.7c-0.1,0-0.3,0-0.4,0.1l-1.4,0.6c-0.2,5.7-0.8,24.2-0.8,28.8
		c-0.1,8.2-0.4,21.4-0.4,22.6c0,0.8,1,1,1.7,1.3l0.6,0.1c0-0.8,0.1-2.7,0.1-5.3c0.1-4.8,0.3-12,0.3-17c0-3.7,0.4-15.5,0.7-23.4
		C131.3,66.7,131.4,64,131.4,63.5z"/>
</g>
</svg>
