<?xml version="1.0" encoding="utf-8"?>
<!-- Generator: Adobe Illustrator 19.2.0, SVG Export Plug-In . SVG Version: 6.00 Build 0)  -->
<svg version="1.1" id="Layer_1" xmlns="http://www.w3.org/2000/svg" xmlns:xlink="http://www.w3.org/1999/xlink" x="0px" y="0px"
	 viewBox="0 0 170 170" style="enable-background:new 0 0 170 170;" xml:space="preserve">
<style type="text/css">
	.st0{fill:#F37321;}
</style>
<g>
	<path class="st0" d="M39.6,82.7c-0.2-0.3-0.3-0.4-0.5-0.6c-0.2-0.2-0.4-0.3-0.7-0.3s-0.4-0.1-0.7-0.1c-1.3,0.2-1.9,0.3-3.1,0.4
		c0.2,1.7,0.3,2.5,0.5,4.2c1.3-0.2,2-0.3,3.3-0.4c0.3,0,0.4-0.1,0.7-0.3c0.2-0.2,0.3-0.3,0.5-0.5c0.1-0.2,0.2-0.4,0.3-0.7
		s0.1-0.5,0-0.8C39.8,83.2,39.7,82.9,39.6,82.7z"/>
	<path class="st0" d="M166.8,48.6c0.3,0.8,0.4,1.7,0.4,2.5c0.1,1.4-0.1,2.7-0.5,3.9c-0.3,1.2-0.9,2.3-1.5,3.3
		c-1.2,2-2.7,3.4-4.2,4.6c-1.4,1.2-2.9,2-4.1,2.7c-0.9,0.5-1.8,0.9-2.5,1.3c-0.3-0.6-0.6-1.2-0.8-1.9c0.7-0.3,1.5-0.7,2.4-1.1
		c1.2-0.6,2.5-1.4,3.8-2.5c1.4-1,2.7-2.4,3.7-4.1c1.1-1.7,1.9-3.7,1.7-6c-0.1-2.2-1.1-4.6-2.9-6.5c-0.4-0.5-0.9-0.9-1.4-1.4
		c-0.5-0.4-1-0.8-1.6-1.3c-1.2-0.8-2.5-1.4-3.8-2c-2.7-1.2-5.8-2-8.9-2.5c-3.2-0.6-6.5-0.8-10-0.9c-6.9-0.2-14.3,0.5-21.7,2
		c-3.7,0.8-7.5,1.7-11.1,3c-1.9,0.6-3.7,1.3-5.5,2c-1.8,0.8-3.7,1.5-5.5,2.3c-3.7,1.5-7.4,3.2-11,4.9c-3.7,1.7-7.3,3.5-11,5.2
		c-3.7,1.7-7.5,3.4-11.4,4.5c-2.3,0.7-4.6,1.2-7,1.6c-12-8.3-25.3-14.6-37.9-14.6c-2.9,0-5.8,0.3-8.6,1c-5,1.3-5.5,5.4-5.5,5.4
		s-0.1,0.2-0.1,0.4c0,0.2-0.1,0.3-0.1,0.5c-0.3,1.4,0.1,3.6,0.3,4.2c6.2,18.4,7.5,36.5,7.4,44.6c0,0.4,0.7,3.9,10.5,5.3
		c24.9,3.4,46.6-4.1,64-12.5c0.1,0.3,0.2,0.5,0.3,0.8c0.5,2.7-1.1,6.1-0.1,8.6c1,2.5,4.6,3.6,6,5.7c1.4,2.2,1.2,5.9,3,7.7
		c1.9,1.9,5.6,1.5,7.7,3c2.2,1.4,3.2,5,5.7,6c2.5,1,5.9-0.6,8.6-0.1c2.6,0.5,5.1,3.4,7.9,3.4s5.3-2.9,7.9-3.4
		c2.7-0.5,6.1,1.1,8.6,0.1s3.6-4.6,5.7-6c2.2-1.4,5.9-1.1,7.7-3c1.9-1.9,1.5-5.6,3-7.7c1.4-2.2,5-3.2,6-5.7c1-2.5-0.6-5.9-0.1-8.6
		c0.5-2.6,3.4-5.1,3.4-7.9c0-0.3-0.1-0.7-0.2-1.1c2.5-4.3,4.6-10.2,5.8-18.4C170.4,64.4,170.9,55.8,166.8,48.6z M12.6,62.6
		c-1.5-0.3-3.1-0.7-4.5-1.1c-2.8-2.2-3.5-4.2-3.5-5.4c0-1.7,1.2-2.5,2.6-3c2.3-0.6,4.8-0.9,7.4-0.9c5.5,0,15.2,2.4,24,7
		c2.2,1.2,4.5,2.5,6.8,3.9c-7.5,0.8-14.7,1.2-21.7,0.8C20,63.7,16.2,63.2,12.6,62.6z M30.4,86.3c-0.2,0.5-0.4,1-0.8,1.4
		c-0.3,0.4-0.8,0.8-1.3,1.1c-0.5,0.3-1.1,0.4-1.7,0.5c-1.3,0.1-2,0.2-3.2,0.3c0.1,1.8,0.2,2.6,0.3,4.3C22.6,94,22.1,94,21,94.1
		c-0.3-5.2-0.3-7.8-0.6-13c2.2-0.1,3.3-0.2,5.5-0.3c0.6-0.1,1.2,0,1.7,0.3c0.5,0.2,1,0.5,1.4,0.8c0.4,0.3,0.8,0.8,1,1.3
		c0.3,0.5,0.4,1,0.5,1.5C30.6,85.2,30.5,85.8,30.4,86.3z M41.5,92c-1.4-1.5-2.1-2.3-3.4-3.9c-1,0.2-1.5,0.3-2.6,0.3
		c0.3,1.7,0.3,2.6,0.5,4.3c-1.1,0.2-1.6,0.2-2.7,0.3c-0.6-5.2-0.8-7.8-1.4-13c2.3-0.3,3.5-0.4,5.8-0.8c0.6-0.1,1.2-0.1,1.7,0.2
		c0.5,0.2,1,0.4,1.4,0.8c0.4,0.3,0.8,0.8,1.1,1.3c0.3,0.5,0.5,1,0.6,1.5c0.2,0.8,0.1,1.6-0.3,2.4c-0.3,0.8-0.8,1.4-1.5,1.8
		c1.5,1.8,2.3,2.6,3.9,4.3C43.3,91.7,42.7,91.9,41.5,92z M46.3,91.2c-0.9-5.1-1.4-7.7-2.3-12.8c1-0.2,1.5-0.3,2.5-0.5
		c1,5.1,1.5,7.6,2.5,12.8C47.9,90.9,47.4,91,46.3,91.2z M61.9,86.1c-0.3,0.5-0.7,0.9-1.1,1.3s-0.9,0.7-1.4,1
		c-0.5,0.3-1.1,0.5-1.6,0.6c-0.9,0.3-1.9,0.3-2.8,0.1c-0.9-0.2-1.7-0.5-2.4-1c-0.7-0.5-1.3-1.1-1.8-1.8c-0.5-0.7-0.8-1.4-1-2.3
		c-0.2-0.8-0.2-1.6-0.1-2.4c0.2-0.8,0.4-1.6,0.8-2.3c0.4-0.7,0.9-1.4,1.7-1.9c0.7-0.5,1.5-0.9,2.5-1.2c1.2-0.3,2.2-0.3,3.2,0
		c1,0.3,1.8,0.8,2.5,1.4c-0.6,0.8-0.9,1.1-1.6,1.8c-0.3-0.3-0.5-0.6-0.8-0.8s-0.6-0.3-0.9-0.3c-0.3-0.1-0.6-0.1-0.9-0.1
		s-0.6,0.1-0.9,0.1c-0.6,0.2-1.1,0.4-1.5,0.8c-0.5,0.3-0.8,0.7-1,1.1c-0.3,0.5-0.3,1-0.4,1.5c-0.1,0.5,0,1.1,0.1,1.5
		c0.1,0.6,0.3,1.1,0.7,1.5c0.3,0.5,0.7,0.8,1.1,1.2c0.4,0.3,0.9,0.5,1.4,0.7c0.5,0.1,1.1,0.1,1.7,0c0.3-0.1,0.6-0.2,0.9-0.3
		c0.3-0.2,0.6-0.3,0.8-0.6c0.3-0.3,0.5-0.5,0.7-0.8c0.2-0.3,0.3-0.7,0.3-1c0.9,0.3,1.4,0.3,2.5,0.6C62.4,85.1,62.2,85.6,61.9,86.1z
		 M65,86.9c-1.4-5-2.1-7.6-3.6-12.6c3.4-1,5.1-1.5,8.5-2.6c0.3,0.8,0.4,1.3,0.7,2.1c-2.5,0.8-3.7,1.2-6.1,2c0.3,1.2,0.5,1.8,0.9,3
		c2.2-0.7,3.2-1,5.4-1.7c0.3,0.8,0.4,1.2,0.7,2c-2.2,0.8-3.3,1.1-5.4,1.7c0.4,1.3,0.6,2,1,3.2c2.6-0.8,4-1.2,6.6-2.1
		c0.3,0.8,0.4,1.3,0.7,2.1C70.6,85.3,68.7,85.8,65,86.9z M159.2,93.7c-0.7,1-1.4,2-1.5,3c-0.2,1,0,2.2,0.3,3.4
		c0.3,1.6,0.6,3.2,0,4.7c-0.6,1.4-2,2.3-3.3,3.1c-1,0.7-2,1.3-2.5,2.1c-0.5,0.8-0.8,2-1,3.1c-0.3,1.5-0.6,3.1-1.7,4.2
		c-1.1,1.1-2.6,1.4-4.2,1.7c-1.2,0.3-2.4,0.4-3.1,1c-0.8,0.5-1.4,1.5-2.1,2.5c-0.8,1.4-1.7,2.7-3.1,3.3c-1.4,0.6-3.1,0.3-4.7,0
		c-1.3-0.3-2.4-0.4-3.4-0.3c-0.9,0.2-2,0.8-3,1.5c-1.4,0.9-2.8,1.9-4.3,1.9c-1.5,0-3-0.9-4.4-1.9c-1-0.7-2-1.4-3-1.5
		c-1-0.2-2.2,0-3.4,0.3c-1.6,0.3-3.2,0.6-4.7,0c-1.4-0.6-2.3-2-3.1-3.3c-0.7-1-1.3-2-2.1-2.5c-0.8-0.5-2-0.8-3.1-1
		c-1.5-0.3-3.1-0.6-4.2-1.7c-1.1-1.1-1.4-2.6-1.7-4.2c-0.3-1.2-0.4-2.4-1-3.1c-0.5-0.8-1.5-1.4-2.5-2.1c-1.4-0.8-2.7-1.7-3.3-3.1
		c-0.6-1.4-0.3-3.1,0-4.7c0.3-1.3,0.4-2.4,0.3-3.4c-0.2-0.9-0.8-2-1.5-3c-0.9-1.4-1.9-2.8-1.9-4.3c0-1.6,0.9-3,1.9-4.4
		c0.7-1,1.4-2,1.5-3c0.2-1,0-2.2-0.3-3.4c-0.3-1.6-0.6-3.2,0-4.7c0.6-1.4,2-2.3,3.3-3.1c1-0.7,2-1.3,2.5-2.1c0.5-0.8,0.8-2,1-3.1
		c0.3-1.5,0.6-3.1,1.7-4.2c1.1-1.1,2.6-1.4,4.2-1.7c1.2-0.3,2.4-0.4,3.1-1c0.8-0.5,1.4-1.5,2.1-2.5c0.8-1.4,1.7-2.7,3.1-3.3
		c1.4-0.6,3.1-0.3,4.7,0c1.3,0.3,2.4,0.4,3.4,0.3c0.9-0.2,2-0.8,3-1.5c1.4-0.9,2.8-1.9,4.4-1.9c1.6,0,3,0.9,4.3,1.9
		c1,0.7,2,1.4,3,1.5c1,0.2,2.2,0,3.4-0.3c1.6-0.3,3.2-0.6,4.7,0c1.4,0.6,2.3,2,3.1,3.3c0.7,1,1.3,2,2.1,2.5c0.8,0.5,2,0.8,3.1,1
		c1.5,0.3,3.1,0.6,4.2,1.7c1.1,1.1,1.4,2.6,1.7,4.2c0.3,1.2,0.4,2.4,1,3.1c0.5,0.8,1.5,1.4,2.5,2.1c1.4,0.8,2.7,1.7,3.3,3.1
		c0.6,1.4,0.3,3.1,0,4.7c-0.3,1.3-0.4,2.4-0.3,3.4c0.2,0.9,0.8,2,1.5,3c0.9,1.4,1.9,2.8,1.9,4.4C161.1,91,160.2,92.4,159.2,93.7z"/>
	<path class="st0" d="M27.7,84.1c-0.1-0.3-0.3-0.4-0.4-0.6c-0.2-0.2-0.3-0.3-0.6-0.3C26.4,83,26.3,83,26,83
		c-1.2,0.1-1.7,0.1-2.9,0.2c0.1,1.7,0.2,2.5,0.3,4.2c1.2-0.1,1.9-0.1,3.1-0.2c0.5,0,0.8-0.3,1.2-0.7c0.3-0.4,0.4-0.9,0.3-1.6
		C27.9,84.6,27.8,84.3,27.7,84.1z"/>
	<path class="st0" d="M131.2,61.6c0-0.3-0.2-0.7-0.6-0.7c-0.1,0-0.3,0-0.4,0.1l-1.4,0.6c-0.2,5.7-0.8,24.2-0.8,28.8
		c-0.1,8.2-0.4,21.4-0.4,22.6c0,0.8,1,1,1.7,1.3l0.6,0.1c0-0.8,0.1-2.7,0.1-5.3c0.1-4.8,0.3-12,0.3-17c0-3.7,0.4-15.5,0.7-23.4
		C131.1,64.8,131.2,62.1,131.2,61.6z"/>
	<path class="st0" d="M113.9,68.1l-2,0.3l-2.9,1.2c0,0-0.1,0,0,0.2c0.2,0.5,0.6,1,0.8,0.9l5.3-1c0-0.2,0-0.4,0-0.5
		C115,68.5,114.5,68,113.9,68.1z"/>
	<path class="st0" d="M154.7,82.7c-0.3-1.2,0-2.5,0.3-3.7c0.3-1.4,0.5-2.7,0.1-3.7c-0.4-1-1.5-1.7-2.6-2.5c-1-0.7-2.1-1.4-2.7-2.3
		c-0.7-0.9-0.9-2.2-1.1-3.4c-0.3-1.4-0.5-2.6-1.3-3.4s-2-1-3.4-1.3c-1.2-0.3-2.5-0.5-3.4-1.1c-0.9-0.7-1.6-1.7-2.3-2.7
		c-0.8-1.2-1.4-2.2-2.5-2.6s-2.3-0.2-3.7,0.1c-1.3,0.3-2.5,0.5-3.7,0.3c-1.1-0.3-2.2-0.9-3.2-1.6c-1.2-0.8-2.3-1.5-3.5-1.5
		c-1.2,0-2.3,0.8-3.5,1.5c-1,0.7-2.1,1.4-3.2,1.6c-1.2,0.3-2.5,0-3.7-0.3c-1.4-0.3-2.7-0.5-3.7-0.1c-1,0.4-1.7,1.5-2.5,2.6
		c-0.7,1-1.4,2.1-2.3,2.7c-0.9,0.7-2.2,0.9-3.4,1.1c-1.4,0.3-2.6,0.5-3.4,1.3s-1,2-1.3,3.4c-0.3,1.2-0.5,2.5-1.1,3.4
		c-0.7,0.9-1.7,1.6-2.7,2.3c-1.2,0.8-2.2,1.4-2.6,2.5c-0.4,1-0.2,2.3,0.1,3.7c0.3,1.3,0.5,2.5,0.3,3.7c-0.3,1.1-0.9,2.2-1.6,3.2
		c-0.8,1.2-1.5,2.3-1.5,3.5c0,1.2,0.8,2.3,1.5,3.5c0.7,1,1.4,2.1,1.6,3.2c0.3,1.2,0,2.5-0.3,3.7c-0.3,1.4-0.5,2.7-0.1,3.7
		c0.4,1,1.5,1.7,2.6,2.5c1,0.7,2.1,1.4,2.7,2.3c0.7,0.9,0.9,2.2,1.1,3.4c0.3,1.4,0.5,2.6,1.3,3.4c0.8,0.8,2,1,3.4,1.3
		c1.2,0.3,2.5,0.5,3.4,1.1c0.9,0.7,1.6,1.7,2.3,2.7c0.8,1.2,1.4,2.2,2.5,2.6c1,0.4,2.3,0.2,3.7-0.1c0.8-0.2,1.8-0.3,2.6-0.3
		c0.3,0,0.7,0,1.1,0.1c1.1,0.3,2.2,0.9,3.2,1.6c1.2,0.8,2.3,1.5,3.5,1.5c1.2,0,2.3-0.8,3.5-1.5c1-0.7,2.1-1.4,3.2-1.6
		c1.2-0.3,2.5,0,3.7,0.3c1.4,0.3,2.7,0.5,3.7,0.1c1-0.4,1.7-1.5,2.5-2.6c0.7-1,1.4-2.1,2.3-2.7c0.9-0.7,2.2-0.9,3.4-1.1
		c1.4-0.3,2.6-0.5,3.4-1.3c0.8-0.8,1-2,1.3-3.4c0.3-1.2,0.5-2.5,1.1-3.4c0.7-0.9,1.7-1.6,2.7-2.3c1.2-0.8,2.2-1.4,2.6-2.5
		c0.4-1,0.2-2.3-0.1-3.7c-0.3-1.3-0.5-2.5-0.3-3.7c0.3-1.1,0.9-2.2,1.6-3.2c0.8-1.2,1.5-2.3,1.5-3.5c0-1.2-0.8-2.3-1.5-3.5
		C155.7,84.8,154.9,83.8,154.7,82.7z M150.4,82c0.1,1.1-0.2,2.3-0.8,3.2c-0.6,0.9-1.4,1.6-2.3,1.9c-0.9,0.1-1.8-0.3-2.6-0.9
		c-0.8-0.7-1.3-1.7-1.5-2.8c0.9-0.1,1.8,0.3,2.6,0.9c0.8,0.7,1.3,1.7,1.5,2.8c-0.1-1.1,0.2-2.3,0.8-3.2
		C148.7,83,149.5,82.3,150.4,82z M146.3,79c0.3-1.1,1-2,1.8-2.5c0.3,1.1,0.3,2.3-0.1,3.4c-0.3,1.1-1,2-1.8,2.5
		c-0.8,0.3-1.8,0.3-2.7-0.1c-0.9-0.4-1.6-1.3-2-2.2c0.8-0.3,1.8-0.3,2.7,0.1c0.9,0.4,1.6,1.3,2,2.2C146,81.3,146,80.2,146.3,79z
		 M143.6,75c0.1-1.3,0.5-2.3,1.2-3.1c0.5,0.9,0.8,2,0.7,3.3c-0.1,1.2-0.5,2.3-1.2,3.1c-0.8,0.6-1.7,0.9-2.6,0.8
		c-0.9-0.2-1.8-0.7-2.4-1.5c0.8-0.6,1.7-0.9,2.6-0.8c0.9,0.2,1.8,0.7,2.4,1.5C143.8,77.3,143.5,76.2,143.6,75z M138.8,74.1
		c0.9-0.2,1.9,0.1,2.6,0.7c-0.7-0.8-1.2-1.8-1.3-3c-0.2-1.2,0.1-2.4,0.5-3.3c0.7,0.8,1.2,1.8,1.3,3c0.2,1.2-0.1,2.4-0.5,3.3
		c-0.6,0.8-1.4,1.4-2.4,1.6c-0.9,0.2-1.9-0.1-2.6-0.7C137,74.9,137.8,74.3,138.8,74.1z M98,71.9c0.7,0.8,1.1,1.8,1.2,3.1
		c0.1,1.2-0.2,2.4-0.7,3.3c0.6-0.8,1.4-1.4,2.4-1.5c0.9-0.2,1.9,0.2,2.6,0.8c-0.6,0.8-1.4,1.4-2.4,1.5c-0.9,0.2-1.9-0.2-2.6-0.8
		c-0.7-0.8-1.1-1.8-1.2-3.1S97.5,72.8,98,71.9z M94.6,76.5c0.8,0.5,1.4,1.4,1.8,2.5c0.3,1.1,0.3,2.3,0.1,3.4c0.4-1,1.1-1.8,2-2.2
		c0.9-0.4,1.9-0.4,2.7-0.1c-0.4,1-1.1,1.8-2,2.2c-0.9,0.4-1.9,0.4-2.7,0.1c-0.8-0.5-1.4-1.4-1.8-2.5C94.3,78.7,94.3,77.5,94.6,76.5z
		 M94.6,83.9c0.6,0.9,0.8,2.1,0.8,3.2c0.2-1.1,0.7-2.1,1.5-2.8c0.8-0.7,1.7-1,2.6-0.9c-0.2,1.1-0.7,2.1-1.5,2.8
		c-0.8,0.7-1.7,1-2.6,0.9c-0.8-0.3-1.7-0.8-2.3-1.9c-0.6-0.9-0.8-2.1-0.8-3.2C93.2,82.3,94,83,94.6,83.9z M93.9,89.2
		c0.8,0.8,1.2,1.8,1.4,2.9c0-1.1,0.3-2.3,0.8-3.2c0.6-0.9,1.4-1.5,2.3-1.8c0,1.1-0.3,2.3-0.8,3.2c-0.6,0.9-1.4,1.5-2.3,1.8
		c-0.9,0-1.8-0.3-2.5-1.1c-0.8-0.8-1.2-1.8-1.4-2.9C92.2,88.1,93.1,88.5,93.9,89.2z M91.6,94.3c0.8-0.3,1.8-0.3,2.7,0.2
		c0.8,0.5,1.5,1.4,2,2.3c-0.3-1.1-0.3-2.3,0.2-3.4s1.1-2,1.9-2.5c0.3,1.1,0.3,2.3-0.2,3.4c-0.4,1.1-1.1,2-1.9,2.5
		c-0.8,0.3-1.8,0.3-2.7-0.2C92.6,96.2,91.9,95.4,91.6,94.3z M93.1,100.3c0.8-0.6,1.7-0.8,2.6-0.7c0.9,0.2,1.8,0.8,2.4,1.6
		c-0.5-0.9-0.7-2.1-0.5-3.3c0.2-1.2,0.6-2.2,1.3-3c0.5,0.9,0.7,2.1,0.5,3.3c-0.2,1.2-0.6,2.2-1.3,3c-0.8,0.6-1.7,0.8-2.6,0.7
		S93.7,101.1,93.1,100.3z M98.5,106.3c-0.9,0.2-1.9-0.2-2.6-0.8c0.6-0.8,1.4-1.4,2.4-1.5s1.9,0.2,2.6,0.8c-0.7-0.8-1.1-1.8-1.2-3
		c-0.1-1.2,0.2-2.4,0.6-3.3c0.7,0.8,1.1,1.8,1.2,3c0.1,1.2-0.2,2.4-0.6,3.3C100.3,105.6,99.4,106.2,98.5,106.3z M104.3,107.3
		c-0.4,1-1.1,1.8-2,2.3c-0.9,0.4-1.9,0.4-2.7,0.1c0.4-1,1.1-1.8,2-2.3C102.5,107,103.4,107,104.3,107.3c-0.8-0.5-1.4-1.4-1.8-2.5
		c-0.3-1.1-0.3-2.3-0.1-3.4c0.8,0.5,1.4,1.4,1.8,2.5C104.6,105,104.6,106.2,104.3,107.3z M103.7,76.4c-0.9-0.2-1.8-0.8-2.4-1.6
		c-0.5-0.9-0.7-2.1-0.5-3.3c0.2-1.2,0.6-2.2,1.3-3c0.5,0.9,0.7,2.1,0.5,3.3c-0.2,1.2-0.6,2.2-1.3,3c0.8-0.6,1.7-0.8,2.6-0.7
		c0.9,0.2,1.8,0.8,2.4,1.6C105.6,76.3,104.7,76.6,103.7,76.4z M137.3,118.2c-2.7-0.1-7.1-0.2-13-0.2c-5.6,0-10.9,0.1-13,0.2
		c-0.4,0-0.4-0.3-0.4-0.5c0-0.3,0.2-1.2,0.8-1.4l0.9-0.1c-1.6,0-2.9,0.1-3.7,0.1c-0.2,0-0.2-0.1-0.2-0.3c0-0.3,0.2-1,0.6-1.2
		l5.5-0.8c0.6-0.1,1.3-0.3,1.3-1c0.1-2.7-0.2-18.5-0.3-21.8c-0.1-4.4-0.3-16.2-0.5-21.1l-5.2,1c-0.5,0.1-1.1-0.7-1.3-1.2
		c-0.2-0.3-0.1-0.6,0.2-0.8l1-0.4l-2.5,0.5c-0.3,0.1-0.8-0.6-1-1c-0.1-0.2-0.1-0.3,0.1-0.5l21.2-8.6c0.2-0.1,0.3-0.1,0.5-0.1
		c0.5,0,0.8,0.4,0.8,0.8c0,0.2,0,0.6,0,1.2l1.2-0.5c0.3-0.1,0.4-0.1,0.6-0.1c0.6,0,0.9,0.4,0.9,1.1c0,0.4-0.1,3.1-0.3,7
		c-0.3,7.9-0.7,19.9-0.7,23.4c-0.1,5.1-0.2,12.2-0.3,17c-0.1,2.5-0.1,4.5-0.1,5.4l4.2,0.5c0.3,0.1,0.6,0.8,0.6,1.2c0,0,0,0,0,0.1
		l2,0.3c0.4,0.2,0.8,0.9,0.8,1.4C137.8,118,137.8,118.2,137.3,118.2z M140.4,109.5c-0.9-0.4-1.6-1.3-2-2.3c-0.3-1.1-0.3-2.3,0.1-3.4
		c0.3-1.1,1-2,1.8-2.5c0.3,1.1,0.3,2.3-0.1,3.4c-0.3,1.1-1,2-1.8,2.5c0.8-0.3,1.8-0.3,2.7,0.1c0.9,0.4,1.6,1.3,2,2.3
		C142.3,110.1,141.4,110.1,140.4,109.5z M144.3,106.3c-0.9-0.2-1.8-0.7-2.4-1.5c-0.5-0.9-0.8-2.1-0.6-3.3c0.1-1.2,0.6-2.2,1.2-3
		c0.5,0.9,0.8,2.1,0.6,3.3c-0.1,1.2-0.6,2.3-1.2,3c0.8-0.6,1.7-0.9,2.6-0.8s1.8,0.7,2.4,1.5C146.1,106.2,145.2,106.5,144.3,106.3z
		 M147.2,101.9c-0.9,0.2-1.9-0.1-2.6-0.7c-0.7-0.8-1.2-1.8-1.3-3c-0.2-1.2,0.1-2.4,0.5-3.3c0.7,0.8,1.2,1.8,1.3,3
		c0.2,1.2-0.1,2.4-0.5,3.3c0.6-0.8,1.4-1.4,2.4-1.6c0.9-0.2,1.9,0.1,2.6,0.7C149,101.1,148.2,101.7,147.2,101.9z M149.2,96.7
		c-0.8,0.5-1.9,0.5-2.7,0.2c-0.8-0.5-1.4-1.4-1.9-2.5c-0.4-1.1-0.4-2.3-0.2-3.4c0.8,0.5,1.4,1.4,1.9,2.5c0.4,1.1,0.4,2.3,0.2,3.4
		c0.4-1,1.1-1.9,2-2.3c0.8-0.5,1.9-0.5,2.7-0.2C150.7,95.4,150.1,96.2,149.2,96.7z M150.1,91c-0.8,0.8-1.7,1.1-2.5,1.1
		c-0.8-0.3-1.7-0.8-2.3-1.8c-0.6-0.9-0.8-2.1-0.8-3.2c0.8,0.3,1.7,0.8,2.3,1.8c0.6,0.9,0.8,2.1,0.8,3.2c0.2-1.1,0.7-2.1,1.4-2.9
		c0.8-0.8,1.7-1.1,2.5-1.1C151.2,89.2,150.8,90.3,150.1,91z"/>
</g>
</svg>
