<?xml version="1.0" encoding="utf-8"?>
<!-- Generator: Adobe Illustrator 19.2.0, SVG Export Plug-In . SVG Version: 6.00 Build 0)  -->
<svg version="1.1" id="Layer_1" xmlns="http://www.w3.org/2000/svg" xmlns:xlink="http://www.w3.org/1999/xlink" x="0px" y="0px"
	 viewBox="0 0 170 170" style="enable-background:new 0 0 170 170;" xml:space="preserve">
<style type="text/css">
	.st0{fill:#F37321;}
</style>
<path class="st0" d="M169.6,73.8V73l-0.5-0.5l-0.4-0.8l-2-1.1l-0.9-0.3l-1,0.2h-1l0.1-1.7l0.3-0.8l0.3-0.3l2.8-1.6l0.5-0.3l0.5-0.5
	l-0.3-0.3l-2-0.1l-0.8-0.3h-0.3v-0.8l0.3-0.5l0.8-0.4l0.5-0.5l0.3-0.5L168,61v-0.8l-0.4-1.8l-0.5-0.5v-0.8l0.8-1.2H167l-0.8-0.3
	h-0.5l-0.3,0.3l-0.8,0.4l-1.2-0.1l-1.2-0.3l-0.5-0.3l-0.8-0.3l-1.5,0.2l-0.8-0.3l-0.3-0.5l-0.3-0.8l-0.7-0.6l-0.3-0.3l-1.3,1.3h-0.3
	l-0.3,0.3l-0.9-0.3l-3-1.6l-0.7-0.8l-0.7-0.5l-0.3-0.3l-0.5-0.3l-1,0.4l-0.8,1.4v0.3H147l-0.5-0.3l-0.8-0.5h-0.5l-2.2-1.4l-0.9-0.8
	l-0.7-1l-0.9-2.3l-0.8,1.4l-1,0.9l-2.8,1.7l-1,0.9l-0.8,0.3l-1.8-0.1l-3.1-0.8l-2,0.4l-0.5,0.5l-0.5,0.3l-0.5,0.5l-0.5,0.3l-0.5-0.3
	l-1.2-1.4l-0.9-0.5l-0.7-0.8v-0.5l-0.6-2.7l-0.4-0.8l-0.3-0.8v-1l-0.5-0.3l-0.5-0.5l-2.7-2l-0.3-0.5l-0.1-0.4l-0.8,0.3l-0.5,0.5
	l-0.5,0.3l-0.8,0.3l-1.5-0.3l-2-0.1l-0.8,0.3h-0.3l-0.3,0.3h-0.3V42l-0.3-0.5l-0.2-1.5l-0.3-0.8l-0.4-0.8l-0.3-0.5h-0.3v-0.8
	l0.5-0.3l0.3-0.8l0.3-0.5v-1l-0.4-0.8l-1.4-1l-1.4-1.5l-0.4-0.8l-0.2-1l-1.7-0.3l-3-0.1l-3.3,1.1L91.6,30l-0.3,0.5l-0.3,0.8
	l-0.8,1.2l-0.3,1.2l-0.8,1.2L89,35.1h-0.5l-1.2-0.3l-2.8-0.1l-3.2,0.6l-1.8,0.9l-0.8,0.3h-1l-0.5,0.2l-0.8,0.7l-0.8,2.7l-0.8,0.4
	L74.6,41v0.8l0.3,0.5V43l0.4,1.8v0.8h-0.1l-1.4,0.2h-0.5L73,45.5l-0.8-0.6l-1.7-0.6l-2-0.1l-1.8,0.4l-1,0.7l-0.5,0.3h-0.5l-0.8-0.3
	l-0.5-0.5L61.2,44h-1l-0.5,0.5l-0.2,0.8l-0.8-0.3l-0.9-1L57,44.3l-1.8-0.1l-1.7,0.2l-1,0.4l-1.7-0.1l-0.9-0.5l-0.6,0.9l-0.3,0.8
	l-0.5,0.5h-0.5l-0.8-0.3l-0.9-1l-0.5-0.3l-2.2-0.8l-13.6-2.5l-1.4-0.1l-6.3,1l-0.6,0.2l-0.5,0.3h-0.5l-0.1,1.7h-0.3l-0.8,0.3
	l-0.5,0.3l-0.8,0.3l-0.5,0.5l-0.5,0.3l-0.5-0.3l-0.2-0.6l-0.7-1l-0.3-0.3L15,43.6l-0.5,0.5L13,44.8l0.2,1l-0.3,0.8l0.3,0.5l0.5,0.5
	l0.5,1l0.2,1v0.8l0.3,0.8l0.4,1l0.4,1.5l0.5,0.5l0.4,1.5l0.3,0.3l0.8,0.3l0.5,0.3l0.3,0.5l-0.3,0.3v0.3l-1,0.4l-0.3,0.5l1.9,2.5
	L17,63l-1,0.4h-0.5L15,63.9l-0.5,0.3l-0.8,0.7L11,68.5l-1,1.2l-0.8,0.7l-1.6,2.1l-1,0.9l-0.5,0.3l-0.3,0.5L6,75.7l-0.1,2.5l0.8,3.4
	L6,82.4l-1-0.5l-0.5,0.3l-0.8,0.3l-0.5,1.4l-1.6,2.1l-1.1,2.5L0,89.2v1.2l0.5,0.5H1l0.3,0.3v0.3l0.3,0.5L2,92.6l0.5,0.5l0.9,0.8
	l1.2,0.5l1.3,0.8l1.2,1.3l0.4,0.8L8,97l0.8-0.3L9,97l1.4,0.1l1.5-0.2l0.5,0.3l0.7,0.8l2.5,0.1l2-0.2l2,0.3l2,0.1l0.8-0.3l0.5-0.3
	l0.3-0.3l0.5,0.3l0.3,0.3l0.7,1.3l0.7,0.8l1,0.5l1.3,0.1v-0.3l1-0.2l0.5-0.5l0.5-0.3l0.8-0.3l1-0.7l1.3-0.4l2.8-0.4l1-0.9l1.5-2
	l0.3-0.5V94h1l1,0.5h0.5l0.8-0.3h1l0.3-0.3l0.8-0.4l3.2,0.1l0.3-0.9l0.6-0.9v-1l0.3-0.5l0.3-0.3h1l1.3-0.4l1.3-0.2l0.3,0.3h0.5
	l0.5,0.5l3.4,1.9l1.4,0.3l1.5-0.4l0.2,1l0.3,0.5l3.2,0.2l0.5,0.5l0.7,0.5l0.8,0.3l3,0.6l-0.2,3.9l0.4,1.5v0.5l0.8,0.8l0.5,0.3
	l1.4,0.3l0.5,0.5l0.5,0.3l1.4,2.3l0.2,1l0.4,1l0.9,1l1.4,2.3l0.4,1l0.2,1l-0.1,1.2l0.3,0.3h0.5l0.5,0.3l-0.6,1.7l-2-0.6h-1l-1,0.2
	l-0.5,0.5h-0.5l-1.2-0.3l-0.5,0.5l-0.5,0.3H70l-1.4-0.5h-1l-0.3,0.3v0.5h0.3l0.5,0.5l0.2,1l-0.1,1.7l-0.5,0.8L66,123l-0.5,0.7
	l-0.3,0.8l-0.3,1.4l-0.8,1.7l-0.5,0.7l-0.3,0.9l-1,0.4l-1,0.7l-0.8,0.9l0.5,0.5h0.5L62,132l0.7,0.8l0.9,1.4l0.5,0.3l0.8,0.3l0.5-0.5
	v-0.5l0.8-0.7l1.3,0.1l0.3-0.3l0.3-0.5l1.3-1.2l1-0.4h0.3l0.7,0.8l0.5-0.3l0.5-0.5l1.7,0.1l0.8,0.3l1.4,1l0.5-0.3l0.3-0.5l0.3-1.2
	l-0.5-0.5l-0.3-0.5l0.1-1.3l0.3-0.5l0.8-0.9l0.5-1.2l1.5-1.4l0.5-0.7l0.5-0.9l0.3-0.8l0.3-0.5V120l-0.3-0.5l-0.9-1l-0.5-0.3h-0.8
	l-0.5-0.5v-0.8l0.3-0.9l0.3-0.3l0.5-0.3h0.8v0.8l0.3,0.3l0.8-0.3h0.3v0.3l0.3,0.5l0.7,0.8l0.3-0.5V117l1.5-1.4v-1l-0.3-0.3h-0.5
	v-0.8l0.3-0.5v-0.3l0.3-0.3l1.4,0.5l0.8-0.3l0.5-0.5l4.5-1h0.3l0.1-1.2l0.3-0.5l0.3-0.3l0.8-1.4l-0.1,1.3l-0.3,0.9l2.2,0.1l-0.3-0.3
	l0.1-2.7l-0.4-1.3l0.1-1.4l0.9,1.5l0.9,3.3l0.3,0.3l0.5,0.3l0.5,0.5l0.3,0.5l0.5,0.3l0.3-0.3l0.8,0.3h1l-0.1,1.3l-1.4-0.5l-2.2-0.1
	l-0.3,0.3l-3.5-0.2v0.5l0.3,0.3l0.8,0.3l1.2,0.3l1.3,0.1l1.3-0.2h0.5v0.8h-0.3l-0.8,0.3l-0.8,0.4v0.8l2.5,0.1l0.9,0.5h0.8l0.3,0.3
	v0.3l-0.5,0.5h-1l-0.5-0.3h-0.5l-3.2-0.8l-1.7-0.8h-1l0.3,0.5l0.5,0.3l1.7,0.6l0.9,0.5l1.8,0.6l8.4,1.5h1l0.8-0.3l0.3-0.5h-0.3
	l-0.8,0.3l-1.3-0.1l-0.5-0.3l-0.8-0.3h-0.8l-0.3-0.3v-0.3l2-0.7l1-0.2h1l0.1-1.2h0.3l0.8-0.3l0.5-0.3l0.8-0.3l1.3,0.1v0.3l0.3,0.5
	l0.3,0.8l0.3,0.3h0.5v-0.3l0.3-0.5l0.3-0.8l0.3-0.3h0.3l0.5,0.3l0.3,0.3l-0.1,1.4l0.7,0.8l0.3,0.5l-0.3,0.8l-0.3,0.5h-0.5l-0.5,0.3
	h-0.3l-0.8,0.7l-1,0.4h-0.8l-0.8,0.3v1l-0.3,0.3h-0.3l-3.6,3.1l-1.3,2l-0.5,0.9l0.3,0.5l0.3,0.3l0.9,0.3l1-0.2l1.3-1.2h1l0.9,0.5
	l0.5,0.5h0.8l0.8,0.3h0.5l0.5,0.3l1-0.4l0.3-0.3h1l0.3,0.3l1.4,2.3l0.5,0.5v0.8l0.2,1.3l-0.3,0.5l-0.1,2.3l-1.9,1.7v0.8l1.3,0.1
	l0.5,0.3l0.9,1l0.5,0.3l1.2,0.3h0.5l0.5-0.3l1.8-0.4h0.3l0.5-0.9v-0.5l0.8-0.9l1.6-2.7l2.3-2.4l1.5-0.9l1.5-0.4l0.8,0.3h0.3v-0.8
	l0.3-0.3v-0.3l0.8-0.4l0.8-0.7v-0.8l-0.5-0.3v-0.8l0.3-0.3l1-0.4l0.5-0.5l0.8-0.3l1.7,0.1l0.3,0.5h0.3l1,0.5v0.8l0.3,0.3l0.5-0.5
	l0.8-0.4l0.3-0.3l0.5-0.3l1.4,0.1l0.8-0.7l2.3-0.4l-0.3-0.3l-0.9-0.5l-0.5-0.5v-1l-0.3-0.8v-0.5l1.4,0.1l0.3-0.3l0.1-1.2l-4.7-0.2
	l-0.3,0.3v0.3l-0.3,0.5l-0.3,0.8l-0.3,0.3l-1.8-0.1l-0.3-0.3l-0.4-0.8l-0.5,0.5l-0.3,0.8l-0.5,0.9l-0.3,0.3l-1.3-0.1l-1.2-1.3
	l-0.9-0.5l-2-2l-2.8-4.1l-0.4-1l-1.4-1.5h-0.3v0.8l0.9,1v1l0.5,0.5h0.3l0.7,1l0.7,0.5l0.9,1.5l1.2,1l0.7,1.3l1,1l0.9,0.8l0.7,1v0.3
	l-2-0.1l-1,0.2l-2-0.1l-0.3-0.5l0.3-0.5l1-0.9v-1l-0.3-0.5l-0.7-0.8l-0.5-0.3l-2.5-0.6h-0.5l-0.9-1H124l-0.3-0.3l-0.8,0.3l-0.5-0.3
	h-0.3l-0.3-0.3l0.3-0.5l0.5-0.5l0.1-1.4l-0.5,0.3v0.5l-0.3,0.5l-0.5,0.3l-0.5-0.5l-0.3-0.5v-0.5l-0.3-0.3H120l-0.8-0.3l-0.3,0.3
	l-0.8,0.3l-0.9-0.5l-0.3,0.3l-0.5,0.3l-0.5-0.3l-0.5-0.5v-0.3l-0.3-0.5l-0.5-0.3l-0.3-0.3h-0.3l0.1-1.3l-0.3-0.3h-0.3v0.8l-0.3,0.3
	l-0.6-0.2l-0.5-0.3l-0.3-0.5l0.3-0.3h0.3l0.8-0.3l0.5-0.3l2.5,0.6l1.5,0.5h0.3l0.5-0.3l-0.5-0.5l-0.3-0.5l0.5-0.5l0.9,0.5l0.5-0.7
	h0.3l0.5-0.3l0.5,0.3l0.3,0.5l1.4,0.8v0.8l-0.3,0.3h-0.3l-0.8,0.3l-0.3,0.3v0.5l0.3,0.8l0.3,0.3h0.3l0.5-0.3l0.3-0.3l0.5-1.4v-0.5
	l1.5-0.7l0.8-0.9l0.8-0.7l0.3-0.9l0.3-0.5l0.5-0.3l0.3,0.5l0.3-0.8v-0.3l0.3-0.3l0.5,0.3l0.3,0.5v0.3l0.5,0.3l1.5-0.8l0.8-0.4
	l1.9-2.6l0.3-0.3h0.5l3-0.6h0.8l0.3,0.3l-0.3,0.3l-0.3,0.5v0.3l0.3,0.3l0.8-1.2l2.3-1.4l0.3-0.5h1l0.5,0.3l0.5-0.3v-0.3l0.3-0.8
	l2.6-2.4l0.3-0.8l0.5-0.5l0.5,0.5l0.5,0.3l1.1-3.1v-0.3l0.5-0.3l1-0.2l1.3-0.4l1.5-0.2l0.8,0.3l0.5,0.3h0.3l0.3-0.5v-0.3l0.5-0.3
	l-0.3-0.3l0.5-1.4v-0.5l0.3-0.9l-0.4-1.5l0.5-1.4v-0.8l0.3-0.8l2-0.5l0.3-0.3l0.5-0.8l0.6-1.7l0.3-0.3v-0.3l2.3-0.7l1.3,0.1l1.7-0.3
	l2.5,0.1l0.3-0.3l0.5-0.9l0.9-3.9L169.6,73.8z M29,79.9c-3.4,0-6.1-2.7-6.1-6.1s2.7-6.1,6.1-6.1s6.1,2.7,6.1,6.1S32.4,79.9,29,79.9z
	"/>
</svg>
