<svg id="Layer_1" data-name="Layer 1" xmlns="http://www.w3.org/2000/svg" viewBox="0 0 145 60.71"><defs><style>.cls-1{fill:#fff;}</style></defs><title>logo_main</title><path class="cls-1" d="M60.5,47.63c-0.17-.13-1.29-0.9-1.49-1.08a3.87,3.87,0,0,0-1.36-.74l-0.11,0a4,4,0,0,0-1.69-.07,5,5,0,0,0-.75.25,2.22,2.22,0,0,0-.6.5,1.63,1.63,0,0,0-.38,1.45,2.51,2.51,0,0,0,.44,1l0.06,0.06a3.44,3.44,0,0,0-1.06-.52H53.45a3.11,3.11,0,0,0-2.43.17,2.43,2.43,0,0,0-.59.48,1.67,1.67,0,0,0-.4,1.49,1.85,1.85,0,0,0,.23.68,2.88,2.88,0,0,0,.51.65,3.77,3.77,0,0,0,3.13.85,3.82,3.82,0,0,0,.79-0.26l1.43-.82a1.1,1.1,0,0,0,.35-0.47,1.23,1.23,0,0,0,0-.6A1,1,0,0,0,56,50a3.52,3.52,0,0,1-.74-0.49l-0.05-.06a3.87,3.87,0,0,0,2.83.65,2.42,2.42,0,0,0,.76-0.28c0.21-.12.58-0.1,1-0.25a6,6,0,0,0,.84-0.32,1.11,1.11,0,0,0,.36-0.5,0.93,0.93,0,0,0,0-.6A1.16,1.16,0,0,0,60.5,47.63Z" transform="translate(0 -0.15)"/><path class="cls-1" d="M138,20.82a0.28,0.28,0,0,0,.1-0.23,0.26,0.26,0,0,0-.05-0.16,0.28,0.28,0,0,0-.14-0.11,1.08,1.08,0,0,0-.33,0h-0.37v0.65h0.39A0.65,0.65,0,0,0,138,20.82Z" transform="translate(0 -0.15)"/><path class="cls-1" d="M48.27,29.8a2,2,0,0,0,.85-0.89,3.6,3.6,0,0,0,.29-1.59,2.75,2.75,0,0,0-.32-1.41,1.76,1.76,0,0,0-.89-0.75,4,4,0,0,0-1.44-.23q-0.68,0-1.33.05v5.13h1.29A3.17,3.17,0,0,0,48.27,29.8Z" transform="translate(0 -0.15)"/><path class="cls-1" d="M49.23,36a3.73,3.73,0,0,0,.34-1.73,4.44,4.44,0,0,0-.17-1.33A2.09,2.09,0,0,0,48.86,32a2.12,2.12,0,0,0-.84-0.5,4.09,4.09,0,0,0-1.23-.15H45.43v5.71q0.58,0,1.33,0a4,4,0,0,0,1.56-.25A1.86,1.86,0,0,0,49.23,36Z" transform="translate(0 -0.15)"/><path class="cls-1" d="M69.82,21.46q0-3.23.24-6.82H69.82l-8.1,11.62v0.36h8.1V21.46Z" transform="translate(0 -0.15)"/><path class="cls-1" d="M136.88,22.38a1.59,1.59,0,0,0,1.57,0,1.5,1.5,0,0,0,.58-0.59,1.59,1.59,0,0,0,0-1.58,1.5,1.5,0,0,0-.59-0.58,1.58,1.58,0,0,0-1.55,0,1.49,1.49,0,0,0-.59.58,1.58,1.58,0,0,0,0,1.58A1.51,1.51,0,0,0,136.88,22.38Zm0-2.36h0.7a1.66,1.66,0,0,1,.52.06,0.5,0.5,0,0,1,.26.19,0.54,0.54,0,0,1-.06.68,0.65,0.65,0,0,1-.43.19,0.46,0.46,0,0,1,.17.11,2.16,2.16,0,0,1,.3.41l0.25,0.4h-0.41L138,21.74a1.7,1.7,0,0,0-.34-0.48,0.45,0.45,0,0,0-.26-0.06h-0.19v0.87h-0.34V20Z" transform="translate(0 -0.15)"/><path class="cls-1" d="M85.12,7.64a21,21,0,0,0-32.7,9H3V57.95H142V16.71H91.75A20.88,20.88,0,0,0,85.12,7.64ZM57.12,27L71.5,7.5h5.33V26.63h5.49v2.85H76.83v3.35a12,12,0,0,0,.12,1.9,2.81,2.81,0,0,0,.4,1.12,1.77,1.77,0,0,0,.78.65,9.31,9.31,0,0,0,1.25.41v1.49H67.28V36.92a7,7,0,0,0,1.36-.48,1.83,1.83,0,0,0,.77-0.7,2.76,2.76,0,0,0,.33-1.14q0.07-.7.07-1.76V29.47H57.12V27ZM41.34,37.67a2.58,2.58,0,0,0,.57-0.23,0.77,0.77,0,0,0,.32-0.34,1.67,1.67,0,0,0,.13-0.56v-11A1.57,1.57,0,0,0,42.23,25a0.84,0.84,0,0,0-.32-0.35,2.27,2.27,0,0,0-.58-0.25V23.67h6.42a11,11,0,0,1,1.8.12,4.73,4.73,0,0,1,1.59.56,2.47,2.47,0,0,1,1,1,3.34,3.34,0,0,1,.34,1.56,3.91,3.91,0,0,1-2.67,3.65v0.1A4.47,4.47,0,0,1,51.87,32a3.35,3.35,0,0,1,.72,2.16,4.91,4.91,0,0,1-.33,1.87,3.1,3.1,0,0,1-1,1.29,4.41,4.41,0,0,1-1.58.75,9.33,9.33,0,0,1-2.31.24h-6V37.67Zm-12.75-14h5.17v0.71a2.09,2.09,0,0,0-.59.25,0.89,0.89,0,0,0-.29.33,1.56,1.56,0,0,0-.14.5,8,8,0,0,0,0,.92v7.1a11.2,11.2,0,0,0,.1,1.55,3.71,3.71,0,0,0,.36,1.2,1.86,1.86,0,0,0,.72.77,2.32,2.32,0,0,0,1.19.27,2.16,2.16,0,0,0,1.49-.44,2.41,2.41,0,0,0,.69-1.23,10.33,10.33,0,0,0,.2-2.36V26.38a6.7,6.7,0,0,0-.06-1.12,1,1,0,0,0-.25-0.51,1.73,1.73,0,0,0-.72-0.36V23.68H40.7v0.71a2.52,2.52,0,0,0-.56.23,0.81,0.81,0,0,0-.32.34,1.59,1.59,0,0,0-.14.56v7.56a10.76,10.76,0,0,1-.19,2.23,4.38,4.38,0,0,1-.61,1.51,3.32,3.32,0,0,1-1,1,4.29,4.29,0,0,1-1.38.54,8.33,8.33,0,0,1-1.71.16,7.56,7.56,0,0,1-2.4-.26,3.68,3.68,0,0,1-1.56-1,4,4,0,0,1-.89-1.56,8,8,0,0,1-.29-2.36v-7q0-.5,0-0.85A1.57,1.57,0,0,0,29.5,25a0.85,0.85,0,0,0-.31-0.35,2.27,2.27,0,0,0-.58-0.25V23.67h0Zm-9.85,14a2.47,2.47,0,0,0,.57-0.24,0.8,0.8,0,0,0,.32-0.35,1.68,1.68,0,0,0,.13-0.56v-11A1.57,1.57,0,0,0,19.62,25a0.85,0.85,0,0,0-.32-0.35,2.29,2.29,0,0,0-.58-0.25V23.67h5.17v0.71a2.54,2.54,0,0,0-.56.23A0.85,0.85,0,0,0,23,25a1.53,1.53,0,0,0-.15.56q0,0.34,0,.86V37.1h1.9a1.84,1.84,0,0,0,.91-0.19,1.67,1.67,0,0,0,.58-0.59,4.15,4.15,0,0,0,.43-1.06q0.18-.65.29-1.22H28.3l-0.21,4.35H18.73V37.68h0ZM9,27.1a5.81,5.81,0,0,1,2.12-2.67,5.88,5.88,0,0,1,3.35-.94,12.35,12.35,0,0,1,1.8.12A11.31,11.31,0,0,1,18,24v3.13H16.63a3.79,3.79,0,0,0-.75-1.79,1.69,1.69,0,0,0-1.33-.57,2.52,2.52,0,0,0-2.34,1.63,11.49,11.49,0,0,0-.79,4.84,11,11,0,0,0,.72,4.52,2.35,2.35,0,0,0,3,1.42l0.29-.12a1.88,1.88,0,0,0,.72-0.79,6.06,6.06,0,0,0,.46-1.49H18V38a18.4,18.4,0,0,1-1.94.41,12.86,12.86,0,0,1-1.85.13,6.17,6.17,0,0,1-3.33-.81A4.72,4.72,0,0,1,8.92,35.3a11.9,11.9,0,0,1-.65-4.15,10.54,10.54,0,0,1,.75-4H9ZM138.57,47.94a3.36,3.36,0,0,0-.85.14,4.52,4.52,0,0,0-.72.32,2.18,2.18,0,0,0-.54.56,1.64,1.64,0,0,0-.26,1.49,2.71,2.71,0,0,0,.54.92l0,0.05a3.78,3.78,0,0,0-1.1-.42h-0.1a3.47,3.47,0,0,0-1.68.07,3.08,3.08,0,0,0-.73.34,2.21,2.21,0,0,0-.54.54,1.69,1.69,0,0,0-.26,1.52,1.72,1.72,0,0,0,.35.65,2.82,2.82,0,0,0,.56.57,5.1,5.1,0,0,0,1.76.79H102a1.09,1.09,0,0,0,.15-0.57,1.19,1.19,0,0,0-.25-0.55,1,1,0,0,0-.65-0.32,3.16,3.16,0,0,1-.88-0.17l-0.06,0a3.84,3.84,0,0,0,2.85-.5,2.58,2.58,0,0,0,.6-0.54c0.14-.18.5-0.32,0.82-0.61a6.6,6.6,0,0,0,.65-0.61,1.12,1.12,0,0,0,.14-0.6,1,1,0,0,0-.25-0.56,1.16,1.16,0,0,0-.65-0.32c-0.21-.06-1.54-0.34-1.8-0.45a3.87,3.87,0,0,0-1.54-.17h-0.12a3.94,3.94,0,0,0-1.58.57,4.11,4.11,0,0,0-.6.52,2.12,2.12,0,0,0-.36.68,1.67,1.67,0,0,0,.17,1.5,2.5,2.5,0,0,0,.78.74l0.06,0a3.65,3.65,0,0,0-1.18-.08H98.25a3.44,3.44,0,0,0-1.58.54,2.8,2.8,0,0,0-.6.54,2,2,0,0,0-.37.65,1.29,1.29,0,0,0-.06.24H95l0-.11,0.37-1.46a1.39,1.39,0,0,1,.15-0.43l0.22-.32a3.87,3.87,0,0,0,.77-1.63,2.93,2.93,0,0,0-.21-1.87v0a3.14,3.14,0,0,0-1-1.1c-0.2-.14-0.37-0.25-0.58-0.37a1.64,1.64,0,0,1-.39-0.28,3.33,3.33,0,0,1-.77-1h0a3.65,3.65,0,0,0-1.07-1.47,2.87,2.87,0,0,0-1.87-.72,3,3,0,0,0-1.87.61A3.06,3.06,0,0,0,87.74,47a2.89,2.89,0,0,0,.18,2,13.34,13.34,0,0,1,1.19,6h0a3.4,3.4,0,0,0,.08.57h-73L17,55a1,1,0,0,0,.35-0.45,1.12,1.12,0,0,0,0-.6,1,1,0,0,0-.46-0.54A3.34,3.34,0,0,1,16.12,53L16,52.92a3.87,3.87,0,0,0,2.83.61,2.41,2.41,0,0,0,.76-0.27c0.21-.11.57-0.1,1-0.25a5.5,5.5,0,0,0,.84-0.32,1,1,0,0,0,.38-0.52,0.9,0.9,0,0,0,0-.61,1.07,1.07,0,0,0-.46-0.52c-0.17-.13-1.29-0.9-1.5-1.08a3.71,3.71,0,0,0-1.39-.74l-0.11,0a3.91,3.91,0,0,0-1.67-.06,4,4,0,0,0-.76.25,2.12,2.12,0,0,0-.57.5A1.62,1.62,0,0,0,15,51.32a2.52,2.52,0,0,0,.41,1l0.05,0.06a3.4,3.4,0,0,0-1.06-.51l-0.09,0a3.59,3.59,0,0,0-1.67-.1,3.42,3.42,0,0,0-.77.28,2.31,2.31,0,0,0-.59.48,1.7,1.7,0,0,0-.4,1.49,1.89,1.89,0,0,0,.28.7,2.47,2.47,0,0,0,.51.65c0.08,0.07.17,0.12,0.26,0.18H6.53v-2.2a2.9,2.9,0,0,0,1.36.43,3,3,0,0,0,1.75-.44h0a4.91,4.91,0,0,0,1-.9l0.91-1.22a1.45,1.45,0,0,1,.3-0.35l0.32-.21a3.87,3.87,0,0,0,1.32-1.23A2.94,2.94,0,0,0,14,47.57V47.51a3.12,3.12,0,0,0-.48-1.38,5.36,5.36,0,0,0-.41-0.56,1.94,1.94,0,0,1-.25-0.41,3.19,3.19,0,0,1-.34-1.2h0a4.89,4.89,0,0,0-.11-0.86h0.57a2.06,2.06,0,0,0,.06.3,2.92,2.92,0,0,0,.45.65,4.22,4.22,0,0,0,.65.53,3.6,3.6,0,0,0,3.12.36,2.73,2.73,0,0,0-.46.27,1.74,1.74,0,0,0-.5.57A1.63,1.63,0,0,0,16,47.29a1.73,1.73,0,0,0,.39.69,2.12,2.12,0,0,0,.6.5,3.63,3.63,0,0,0,3.23.32,2.36,2.36,0,0,0,.94-0.58s1.78-.7.79-1.87c-0.17-.22-0.57-0.5-0.74-0.68a2.78,2.78,0,0,0-.6-0.52,3.28,3.28,0,0,0-1.47-.5H19a3.09,3.09,0,0,0-1.17.06l1.55-.5a1,1,0,0,0,.3-0.19,1,1,0,0,0,.38-0.94H45.69a13.34,13.34,0,0,1-.95,3.11h0A2.8,2.8,0,0,0,44.65,48a2.69,2.69,0,0,0,1,1.54,2.91,2.91,0,0,0,1.69.65,3,3,0,0,0,1.76-.43h0a4.77,4.77,0,0,0,1-.9l0.89-1.21a1.29,1.29,0,0,1,.3-0.34l0.32-.21a4.09,4.09,0,0,0,1.34-1.22,3,3,0,0,0,.51-1.81v0a3.6,3.6,0,0,0-.28-1h2.29a1.85,1.85,0,0,0,.1.76,1.94,1.94,0,0,0,.4.69,2.2,2.2,0,0,0,.59.5,3.65,3.65,0,0,0,3.23.34,2.37,2.37,0,0,0,.94-0.57s1.61-.65.89-1.73H94.68a3,3,0,0,0-.33.24,2.63,2.63,0,0,0-.53.6,2.69,2.69,0,0,0-.26.75A1.68,1.68,0,0,0,94,46.12a2.78,2.78,0,0,0,.65.46,4.44,4.44,0,0,0,.77.25A3.62,3.62,0,0,0,98.46,46a2.35,2.35,0,0,0-.37.46,1.83,1.83,0,0,0,.79,2.62,2.42,2.42,0,0,0,.74.24,3.64,3.64,0,0,0,3.13-.92,2.23,2.23,0,0,0,.65-0.88s1.39-1.29,0-2c-0.26-.13-0.73-0.24-0.95-0.35a2.73,2.73,0,0,0-.76-0.26,3.23,3.23,0,0,0-1.54.08l-0.13,0a3.13,3.13,0,0,0-1.05.5c0.45-.38,1-0.87,1.25-1a1,1,0,0,0,.2-0.28,0.74,0.74,0,0,0,.14-0.57,0.79,0.79,0,0,0-.21-0.54H127a3.27,3.27,0,0,0,0,.56,13.18,13.18,0,0,1-.56,6.06v0a3,3,0,0,0,1.21,3.23,2.9,2.9,0,0,0,1.75.5,3,3,0,0,0,1.7-.6h0a4.71,4.71,0,0,0,.88-1l0.76-1.29a1.51,1.51,0,0,1,.26-0.37l0.31-.24a4,4,0,0,0,1.19-1.35,2.91,2.91,0,0,0,.34-1.81V46.72a3.11,3.11,0,0,0-.61-1.33c-0.16-.19-0.3-0.35-0.46-0.52a1.94,1.94,0,0,1-.29-0.38,3.23,3.23,0,0,1-.45-1.16h0c0-.08,0-0.14,0-0.22h0.78a2.42,2.42,0,0,0,.2.24,4.44,4.44,0,0,0,.68.46,3.58,3.58,0,0,0,3.13.06,2.77,2.77,0,0,0-.43.32,1.86,1.86,0,0,0-.48,2.12,1.9,1.9,0,0,0,.46.65,2.16,2.16,0,0,0,.65.44,4.32,4.32,0,0,0,.59.21v0.32ZM136,20.08a1.73,1.73,0,0,1,.71-0.7,1.87,1.87,0,0,1,1.85,0,1.72,1.72,0,0,1,.7.7,1.88,1.88,0,0,1,.26.95,1.94,1.94,0,0,1-.25.94,1.76,1.76,0,0,1-.7.7,1.92,1.92,0,0,1-1.88,0A1.75,1.75,0,0,1,136,22a1.88,1.88,0,0,1-.25-0.94,1.94,1.94,0,0,1,.25-1h0ZM128.63,24a6.67,6.67,0,0,1,2.62-.48,13,13,0,0,1,1.67.1,15.55,15.55,0,0,1,1.81.36V27.1h-1.34a4.8,4.8,0,0,0-.48-1.35,1.89,1.89,0,0,0-.72-0.74,2.52,2.52,0,0,0-2.09,0,1.63,1.63,0,0,0-.7.65,2,2,0,0,0-.25,1,2.47,2.47,0,0,0,.22,1.08,2.77,2.77,0,0,0,.74.89,10.33,10.33,0,0,0,1.5,1,9.74,9.74,0,0,1,1.9,1.35,4.33,4.33,0,0,1,1,1.47,4.66,4.66,0,0,1,.33,1.81,4.52,4.52,0,0,1-.56,2.3,3.69,3.69,0,0,1-1.63,1.5,5.55,5.55,0,0,1-2.47.52,18.36,18.36,0,0,1-2.08-.12,15.79,15.79,0,0,1-2-.36V34.75h1.34a3.87,3.87,0,0,0,.82,1.94,2.16,2.16,0,0,0,1.68.65,2.42,2.42,0,0,0,1-.21,1.67,1.67,0,0,0,.74-0.7,2.36,2.36,0,0,0,.28-1.2,2.74,2.74,0,0,0-.23-1.16,2.85,2.85,0,0,0-.74-1,8.07,8.07,0,0,0-1.36-.94,12.53,12.53,0,0,1-1.38-.87,5.5,5.5,0,0,1-1.05-1,4.26,4.26,0,0,1-.65-1.19,4.15,4.15,0,0,1-.24-1.45,4.07,4.07,0,0,1,.6-2.25A3.71,3.71,0,0,1,128.62,24h0Zm-21.37-.31h5.27v0.71a1.25,1.25,0,0,0-.76.31,1,1,0,0,0-.25.7,8.69,8.69,0,0,0,.28,1.78l1.72,7.49,2.81-11h2.21l2.29,11,2.07-7.3q0.14-.5.23-1a4.6,4.6,0,0,0,.1-0.86,1.17,1.17,0,0,0-.25-0.83,1.12,1.12,0,0,0-.75-0.31V23.67h4.09v0.71a1.36,1.36,0,0,0-.61.31,2,2,0,0,0-.44.65,10.47,10.47,0,0,0-.52,1.3l-3.67,11.81h-2.33l-2.21-10.12-2.63,10.13h-2.45l-3-12.07a7,7,0,0,0-.38-1.23,1.55,1.55,0,0,0-.37-0.52,1.36,1.36,0,0,0-.52-0.26V23.67h0Zm-5.71-.08h2.62l3.23,12.07a9.15,9.15,0,0,0,.36,1.15,1.54,1.54,0,0,0,.38.55,1.46,1.46,0,0,0,.65.31v0.71h-5.4V37.68a1.25,1.25,0,0,0,.76-0.31,1,1,0,0,0,.25-0.7,4.57,4.57,0,0,0-.07-0.74q-0.07-.41-0.23-1l-0.23-1.07H99.66l-0.34,1c-0.09.29-.17,0.57-0.23,0.83a4,4,0,0,0-.09.86,1,1,0,0,0,.85,1.12H100v0.71H95.84V37.67a1.16,1.16,0,0,0,.65-0.28,2.34,2.34,0,0,0,.5-0.65,7.43,7.43,0,0,0,.48-1.18ZM96,24.65a3.59,3.59,0,0,1,1.23,3,5.1,5.1,0,0,1-.58,2.49,3.77,3.77,0,0,1-1.67,1.6,6.15,6.15,0,0,1-2.74.54q-0.95,0-1.56,0v3.43a7.1,7.1,0,0,0,.05,1,1.29,1.29,0,0,0,.16.47,0.88,0.88,0,0,0,.32.3,2.29,2.29,0,0,0,.65.21v0.71H86.55V37.65a2.63,2.63,0,0,0,.57-0.23,0.77,0.77,0,0,0,.31-0.34,1.67,1.67,0,0,0,.14-0.56v-11A1.58,1.58,0,0,0,87.44,25a0.84,0.84,0,0,0-.32-0.35,2.27,2.27,0,0,0-.58-0.25V23.67h5.68a6,6,0,0,1,3.73,1h0Z" transform="translate(0 -0.15)"/><path class="cls-1" d="M93,30.71a1.88,1.88,0,0,0,.86-1,4.76,4.76,0,0,0,.26-1.81,4.69,4.69,0,0,0-.28-1.78,1.8,1.8,0,0,0-.82-0.94,3,3,0,0,0-1.38-.28H90.62V31h0.84A3.33,3.33,0,0,0,93,30.71Z" transform="translate(0 -0.15)"/><polygon class="cls-1" points="101.97 26.35 100.01 32.41 103.54 32.41 101.97 26.35"/><path class="cls-1" d="M93.71,13.72a24,24,0,0,0-43.26,0H0V60.85H145V13.72H93.71Zm50.23,46.11H1.06v-45H51.14a22.94,22.94,0,0,1,41.9,0h50.91v45Z" transform="translate(0 -0.15)"/></svg>