<?xml version="1.0" encoding="utf-8"?>
<!-- Generator: Adobe Illustrator 19.2.0, SVG Export Plug-In . SVG Version: 6.00 Build 0)  -->
<svg version="1.1" id="Layer_1" xmlns="http://www.w3.org/2000/svg" xmlns:xlink="http://www.w3.org/1999/xlink" x="0px" y="0px"
	 viewBox="0 0 145 28.8" style="enable-background:new 0 0 145 28.8;" xml:space="preserve">
<style type="text/css">
	.st0{fill:#FFFFFF;}
</style>
<g>
	<path class="st0" d="M26.4,0c-4.5,0-8.2,3.7-8.2,8.2s3.7,8.2,8.2,8.2s8.2-3.7,8.2-8.2C34.6,3.7,30.9,0,26.4,0z M26.4,13.5
		c-2.9,0-5.3-2.4-5.3-5.3s2.4-5.3,5.3-5.3s5.3,2.4,5.3,5.3C31.6,11.1,29.3,13.5,26.4,13.5z"/>
	<path class="st0" d="M78.3,0c-4.5,0-8.2,3.7-8.2,8.2s3.7,8.2,8.2,8.2s8.2-3.7,8.2-8.2S82.8,0,78.3,0z M78.3,13.5
		c-2.9,0-5.3-2.4-5.3-5.3s2.4-5.3,5.3-5.3s5.3,2.4,5.3,5.3C83.6,11.1,81.2,13.5,78.3,13.5z"/>
	<path class="st0" d="M49.5,13.8c0.5,0.7,0.3,1.7-0.5,2.2c-0.7,0.5-1.7,0.3-2.2-0.5l-2.3-3.6H42c-0.9,0-1.6-0.7-1.6-1.6
		c0-0.9,0.7-1.6,1.6-1.6h2c1.5,0,2.8-1.2,2.8-2.8c0-1.5-1.2-2.8-2.8-2.8h-4.6v11.5c0,0.9-0.7,1.6-1.6,1.6c-0.9,0-1.6-0.7-1.6-1.6
		V0.2h7.7c3.2,0,5.8,2.6,5.8,5.8c0,1.9-0.9,3.6-2.4,4.7L49.5,13.8z"/>
	<path class="st0" d="M68.1,1.6v13.1c0,0.9-0.7,1.6-1.6,1.6s-1.6-0.7-1.6-1.6V6.1L61.3,11c-0.3,0.4-0.7,0.6-1.2,0.6
		s-0.9-0.2-1.2-0.6l-3.6-4.8v8.5c0,0.9-0.7,1.6-1.6,1.6c-0.9,0-1.6-0.7-1.6-1.6V1.6l0,0V1.5l0,0C52.2,0.6,52.9,0,53.7,0
		c0.5,0,1,0.3,1.3,0.6l5.1,6.9l5.2-6.8C65.5,0.3,66,0,66.5,0c0.8,0,1.4,0.6,1.6,1.3v0.1C68.1,1.5,68.1,1.5,68.1,1.6z"/>
	<path class="st0" d="M101,1.7c0,0.9-0.7,1.6-1.6,1.6h-4v11.4c0,0.9-0.7,1.6-1.6,1.6s-1.6-0.7-1.6-1.6V3.3h-4
		c-0.9,0-1.6-0.7-1.6-1.6s0.7-1.6,1.6-1.6h11.1C100.3,0.2,101,0.9,101,1.7z"/>
	<path class="st0" d="M145,1.6v13.1c0,0.9-0.7,1.6-1.6,1.6c-0.9,0-1.6-0.7-1.6-1.6V9.4h-6v5.3c0,0.9-0.7,1.6-1.6,1.6
		c-0.9,0-1.6-0.7-1.6-1.6V1.5c0-0.8,0.7-1.5,1.6-1.5c0.9,0,1.6,0.7,1.6,1.6v4.7h6V1.6c0-0.9,0.7-1.6,1.6-1.6S145,0.7,145,1.6z"/>
	<path class="st0" d="M113.4,13h-7.1V9.5h4c0.9,0,1.6-0.7,1.6-1.6s-0.7-1.6-1.6-1.6h-4v-3h7.1c0.9,0,1.6-0.7,1.6-1.6
		s-0.7-1.6-1.6-1.6h-10.2V16h10.2c0.9,0,1.6-0.7,1.6-1.6S114.3,13,113.4,13z"/>
	<path class="st0" d="M130.4,12.5c0,0.4-0.1,0.7-0.3,0.9l0,0c-1.5,1.8-3.7,2.9-6.2,2.9c-4.5,0-8.1-3.6-8.1-8.1s3.7-8.1,8.1-8.1
		c2.4,0,4.6,1.1,6.1,2.8l0,0l0.1,0.1c0.2,0.2,0.3,0.6,0.3,0.9c0,0.8-0.7,1.5-1.5,1.5c-0.4,0-0.8-0.2-1.1-0.5l0,0l-0.1-0.1
		c-1-1.1-2.4-1.8-3.9-1.8c-2.9,0-5.2,2.3-5.2,5.2s2.3,5.2,5.2,5.2c1.5,0,2.9-0.7,3.9-1.8l0.1-0.1l0,0c0.3-0.3,0.6-0.4,1-0.4
		C129.7,11,130.4,11.6,130.4,12.5z"/>
	<g>
		<path class="st0" d="M17.2,0.3C16.5-0.2,15.5,0,15,0.8L13.6,3c0,0-0.2,0.4-0.3,0.5c-0.2,0.4-0.2,0.9,0.1,1.3l0,0
			c0,0,0,0.1,0.1,0.1l1.3,2L15,6.6l2.8-4.2C18.2,1.7,18,0.7,17.2,0.3z"/>
		<path class="st0" d="M5.4,1.7L5.4,1.7c0-0.9-0.7-1.6-1.6-1.6C3,0.2,2.2,0.9,2.2,1.7v13c0,0.9,0.7,1.6,1.6,1.6s1.6-0.7,1.6-1.6V1.7
			L5.4,1.7z"/>
		<path class="st0" d="M5.4,1.7L5.4,1.7c0-0.9-0.7-1.6-1.6-1.6l0,0H0v1.7l0,0c0,0.8,0.7,1.5,1.6,1.5h2.2c0,0,0,0,0.1,0
			C4.7,3.3,5.4,2.6,5.4,1.7L5.4,1.7z"/>
		<path class="st0" d="M17.2,16c-0.7,0.5-1.6,0.3-2.1-0.4l0,0l-4.5-6.9C10.1,8,10.3,7,11.1,6.5c0.7-0.5,1.6-0.3,2.1,0.4l4.5,6.9
			C18.2,14.6,18,15.5,17.2,16z"/>
		<path class="st0" d="M13.5,7.9c0,0.8-0.6,1.5-1.5,1.6l0,0H3.8C3,9.5,2.2,8.8,2.2,7.9c0-0.8,0.7-1.5,1.5-1.6h8.2
			C12.8,6.3,13.5,7,13.5,7.9z"/>
	</g>
	<path class="st0" d="M57.3,23.2h-1.4c-0.2,0-0.3-0.1-0.4-0.2c-0.1-0.1-0.2-0.2-0.2-0.4c0-0.2,0.1-0.3,0.2-0.4
		c0.1-0.1,0.2-0.2,0.4-0.2h4c0.2,0,0.3,0.1,0.4,0.2c0.1,0.1,0.2,0.2,0.2,0.4c0,0.2,0,0.3-0.2,0.4c-0.1,0.1-0.2,0.2-0.4,0.2h-1.4v5.1
		c0,0.2-0.1,0.3-0.2,0.4c-0.1,0.1-0.2,0.2-0.4,0.2s-0.3-0.1-0.4-0.2c-0.1-0.1-0.2-0.2-0.2-0.4C57.3,28.3,57.3,23.2,57.3,23.2z"/>
	<path class="st0" d="M69.2,28.9c-0.2,0-0.3-0.1-0.4-0.2s-0.2-0.2-0.2-0.4V26h-2.9v2.3c0,0.2-0.1,0.3-0.2,0.4s-0.2,0.2-0.4,0.2
		c-0.2,0-0.3-0.1-0.4-0.2s-0.2-0.2-0.2-0.4v-5.7c0-0.2,0.1-0.3,0.2-0.4s0.2-0.2,0.4-0.2c0.2,0,0.3,0.1,0.4,0.2s0.2,0.2,0.2,0.4v2.3
		h2.9v-2.3c0-0.2,0.1-0.3,0.2-0.4S69,22,69.2,22c0.2,0,0.3,0.1,0.4,0.2s0.2,0.2,0.2,0.4v5.7c0,0.2-0.1,0.3-0.2,0.4
		C69.5,28.9,69.4,28.9,69.2,28.9z"/>
	<path class="st0" d="M74.7,28.9c-0.1,0-0.3-0.1-0.4-0.2s-0.2-0.2-0.2-0.4v-5.7c0-0.2,0.1-0.3,0.2-0.4s0.2-0.2,0.4-0.2
		c0.2,0,0.3,0.1,0.4,0.2s0.2,0.2,0.2,0.4v5.7c0,0.2-0.1,0.3-0.2,0.4C75,28.9,74.9,28.9,74.7,28.9z"/>
	<path class="st0" d="M84.6,28.7L84.6,28.7L84.6,28.7l-3.4-4.4v4.1c0,0.2-0.1,0.3-0.2,0.4S80.8,29,80.6,29c-0.2,0-0.3-0.1-0.4-0.2
		S80,28.6,80,28.4v-5.7c0-0.1,0-0.2,0.1-0.3c0.1-0.1,0.2-0.2,0.3-0.2c0.1,0,0.2,0,0.3,0c0.1,0,0.2,0.1,0.3,0.2l3.4,4.4v-4.1
		c0-0.2,0.1-0.3,0.2-0.4s0.2-0.2,0.4-0.2c0.2,0,0.3,0.1,0.4,0.2s0.2,0.2,0.2,0.4v5.7l0,0l0,0l0,0l0,0l0,0l0,0l0,0l0,0l0,0l0,0l0,0
		l0,0l0,0l0,0l0,0l0,0l0,0l0,0l0,0l0,0c0,0,0,0-0.1,0l0,0c0,0,0,0-0.1,0l0,0h-0.1l0,0h-0.1c0,0,0,0-0.1,0l0,0l0,0l0,0l0,0l0,0l0,0
		l0,0l0,0l0,0l0,0C84.7,28.8,84.7,28.8,84.6,28.7C84.7,28.8,84.7,28.8,84.6,28.7L84.6,28.7L84.6,28.7L84.6,28.7L84.6,28.7z"/>
	<path class="st0" d="M90.2,28.9c-0.2,0-0.3-0.1-0.4-0.2s-0.2-0.2-0.2-0.4v-5.7c0-0.1,0.1-0.3,0.2-0.4S90,22,90.2,22
		c0.2,0,0.3,0.1,0.4,0.2s0.2,0.2,0.2,0.4v2.5l2.7-2.9c0.1-0.1,0.2-0.2,0.4-0.2c0.2,0,0.3,0.1,0.4,0.2s0.2,0.2,0.2,0.4
		c0,0.2,0,0.3-0.2,0.4L92,25.5l2.4,2.5c0.1,0.1,0.2,0.3,0.2,0.4c0,0.2-0.1,0.3-0.2,0.4S94.2,29,94,29c-0.2,0-0.3-0.1-0.4-0.2
		l-2.3-2.5l-0.5,0.5v1.5c0,0.2-0.1,0.3-0.2,0.4S90.4,28.9,90.2,28.9z"/>
	<path class="st0" d="M2.8,28.9c-0.2,0-0.3-0.1-0.4-0.2c-0.1-0.1-0.2-0.2-0.2-0.4v-5.7c0-0.2,0.1-0.3,0.2-0.4
		C2.5,22.1,2.6,22,2.8,22h1.4c0.9,0,1.7,0.3,2.4,1s1,1.5,1,2.4s-0.3,1.7-1,2.4c-0.7,0.7-1.5,1-2.4,1L2.8,28.9L2.8,28.9z M3.4,27.8
		h0.9c0.6,0,1.2-0.2,1.6-0.7c0.4-0.4,0.7-1,0.7-1.6s-0.2-1.2-0.7-1.6c-0.4-0.4-1-0.7-1.6-0.7H3.4V27.8z"/>
	<path class="st0" d="M29.1,28.9c-0.1-0.1-0.2-0.2-0.3-0.3c-0.1-0.1-0.1-0.3,0-0.4l0.6-1.5l0,0l1.8-4.2c0,0,0,0,0-0.1l0,0l0,0l0,0
		l0,0l0,0l0,0l0,0l0,0l0,0l0,0l0,0l0,0l0,0l0,0l0,0l0,0l0,0l0,0l0,0l0,0l0,0l0,0l0,0l0,0l0,0l0,0l0,0l0,0h0.1l0,0l0,0l0,0l0,0l0,0
		l0,0l0,0l0,0l0,0l0,0l0,0l0,0c0,0,0,0,0,0.1l1.8,4.2l0,0l0.6,1.5c0.1,0.1,0.1,0.3,0,0.4s-0.2,0.2-0.3,0.3c-0.1,0-0.1,0-0.2,0
		c-0.3,0-0.4-0.1-0.5-0.4l-0.5-1.1h-2.8l-0.5,1.1c-0.1,0.2-0.3,0.4-0.5,0.4c-0.1,0-0.1,0-0.1,0S29.2,28.9,29.1,28.9z M32.6,26.3
		l-0.9-2.2l-0.9,2.2H32.6z"/>
	<path class="st0" d="M11.3,28.9c-0.3,0-0.6-0.3-0.6-0.6V22H14c1.4,0,2.5,1.1,2.5,2.4c0,0.8-0.4,1.5-1,2l-0.1,0.1l1,1.4
		c0.2,0.3,0.1,0.6-0.2,0.8c-0.1,0.1-0.2,0.1-0.3,0.1c-0.2,0-0.4-0.1-0.5-0.3l-1-1.5h-1.2c-0.3,0-0.6-0.3-0.6-0.6s0.3-0.6,0.6-0.6
		h0.9c0.8,0,1.4-0.6,1.4-1.4s-0.6-1.3-1.4-1.3h-2.2v5.2C11.9,28.7,11.7,28.9,11.3,28.9z"/>
	<path class="st0" d="M44.4,28.9c-0.3,0-0.6-0.3-0.6-0.6v-4.1L42,26.7c-0.1,0.1-0.3,0.2-0.4,0.2c-0.2,0-0.3-0.1-0.4-0.2l-1.8-2.4
		v4.1c0,0.3-0.2,0.6-0.6,0.6c-0.3,0-0.6-0.3-0.6-0.6v-5.7c0-0.3,0.3-0.6,0.6-0.6c0.2,0,0.3,0.1,0.4,0.2l2.4,3.2l0.1-0.1
		c2.3-3,2.3-3,2.3-3c0.1-0.1,0.3-0.2,0.5-0.2c0.3,0,0.5,0.2,0.5,0.5v0.1v5.8C45,28.7,44.7,28.9,44.4,28.9z"/>
	<path class="st0" d="M20.5,28.9v-6.8h4.4c0.3,0,0.6,0.2,0.6,0.6c0,0.3-0.3,0.6-0.6,0.6h-3.3v1.6h1.9c0.3,0,0.6,0.3,0.6,0.6
		c0,0.3-0.3,0.6-0.6,0.6h-1.9v1.8h3.3c0.3,0,0.6,0.2,0.6,0.6c0,0.3-0.3,0.6-0.6,0.6h-4.4V28.9z"/>
	<path class="st0" d="M110,28.9c-0.9,0-1.7-0.3-2.4-1c-0.7-0.7-1-1.5-1-2.4s0.3-1.7,1-2.4c0.7-0.7,1.5-1,2.4-1
		c0.8,0,1.5,0.2,2.1,0.7c0.1,0.1,0.2,0.2,0.2,0.4c0,0.2,0,0.3-0.1,0.4s-0.2,0.2-0.4,0.2c-0.2,0-0.3,0-0.4-0.1
		c-0.4-0.3-0.9-0.5-1.4-0.5c-0.6,0-1.2,0.2-1.6,0.7c-0.4,0.4-0.7,1-0.7,1.6s0.2,1.2,0.7,1.6c0.4,0.4,1,0.7,1.6,0.7s1.1-0.2,1.5-0.6
		c0.1-0.1,0.3-0.2,0.4-0.1c0.2,0,0.3,0.1,0.4,0.2s0.2,0.2,0.1,0.4c0,0.2-0.1,0.3-0.2,0.4C111.7,28.6,110.9,28.9,110,28.9z"/>
	<path class="st0" d="M115.7,28.9c-0.1-0.1-0.2-0.2-0.3-0.3c-0.1-0.1-0.1-0.3,0-0.4l0.6-1.5l0,0l1.8-4.2c0,0,0,0,0-0.1l0,0l0,0l0,0
		l0,0l0,0l0,0l0,0l0,0l0,0l0,0l0,0l0,0l0,0l0,0l0,0l0,0l0,0l0,0l0,0l0,0l0,0l0,0l0,0l0,0l0,0l0,0l0,0l0,0h0.1l0,0l0,0l0,0l0,0l0,0
		l0,0l0,0l0,0l0,0l0,0l0,0l0,0c0,0,0,0,0,0.1l1.8,4.2l0,0l0.6,1.5c0.1,0.1,0.1,0.3,0,0.4s-0.2,0.2-0.3,0.3c-0.1,0-0.1,0-0.2,0
		c-0.3,0-0.4-0.1-0.5-0.4l-0.5-1.1H116l-0.5,1.1c-0.1,0.2-0.3,0.4-0.5,0.4c-0.1,0-0.1,0-0.1,0S115.8,28.9,115.7,28.9z M119.2,26.3
		l-0.9-2.2l-0.9,2.2H119.2z"/>
	<path class="st0" d="M124.7,28.9c-0.3,0-0.6-0.3-0.6-0.6V22h3.3c1.4,0,2.5,1.1,2.5,2.4c0,0.8-0.4,1.5-1,2l-0.1,0.1l1,1.4
		c0.2,0.3,0.1,0.6-0.2,0.8c-0.1,0.1-0.2,0.1-0.3,0.1c-0.2,0-0.4-0.1-0.5-0.3l-1.1-1.7h-1.2c-0.3,0-0.6-0.3-0.6-0.6s0.2-0.6,0.6-0.6
		h0.9c0.8,0,1.4-0.6,1.4-1.4s-0.6-1.3-1.4-1.3h-2.2v5.2C125.2,28.7,125,28.9,124.7,28.9z"/>
	<path class="st0" d="M133.2,28.9v-6.8h4.4c0.3,0,0.6,0.2,0.6,0.6c0,0.3-0.2,0.6-0.6,0.6h-3.3v1.6h1.9c0.3,0,0.6,0.3,0.6,0.6
		c0,0.3-0.2,0.6-0.6,0.6h-1.9v1.8h3.3c0.3,0,0.6,0.2,0.6,0.6c0,0.3-0.2,0.6-0.6,0.6h-4.4V28.9z"/>
	<path class="st0" d="M100.9,28.9c-0.2,0-0.3-0.1-0.4-0.2s-0.2-0.2-0.2-0.4l0,0c0-0.2,0.1-0.3,0.2-0.4s0.2-0.2,0.4-0.2
		c0.2,0,0.3,0.1,0.4,0.2s0.2,0.2,0.2,0.4l0,0c0,0.2-0.1,0.3-0.2,0.4C101.1,28.9,101,28.9,100.9,28.9z"/>
	<path class="st0" d="M50.9,28.9c-0.2,0-0.3-0.1-0.4-0.2c-0.1-0.1-0.2-0.2-0.2-0.4l0,0c0-0.2,0.1-0.3,0.2-0.4
		c0.1-0.1,0.2-0.2,0.4-0.2s0.3,0.1,0.4,0.2c0.1,0.1,0.2,0.2,0.2,0.4l0,0c0,0.2-0.1,0.3-0.2,0.4C51.2,28.9,51.1,28.9,50.9,28.9z"/>
	<path class="st0" d="M144.4,28.9c-0.2,0-0.3-0.1-0.4-0.2c-0.1-0.1-0.2-0.2-0.2-0.4l0,0c0-0.2,0.1-0.3,0.2-0.4
		c0.1-0.1,0.2-0.2,0.4-0.2s0.3,0.1,0.4,0.2c0.1,0.1,0.2,0.2,0.2,0.4l0,0c0,0.2-0.1,0.3-0.2,0.4C144.7,28.9,144.6,28.9,144.4,28.9z"
		/>
</g>
</svg>
