<?xml version="1.0" encoding="utf-8"?>
<!-- Generator: Adobe Illustrator 19.2.0, SVG Export Plug-In . SVG Version: 6.00 Build 0)  -->
<svg version="1.1" id="Layer_1" xmlns="http://www.w3.org/2000/svg" xmlns:xlink="http://www.w3.org/1999/xlink" x="0px" y="0px"
	 viewBox="0 0 30 30.8" style="enable-background:new 0 0 30 30.8;" xml:space="preserve">
<style type="text/css">
	.st0{fill:#002f65;}
</style>
<g>
	<path class="st0" d="M29.6,11.6c-0.2-0.5-0.5-0.9-0.7-1.4c-0.2-0.2-1.8-2.1-2.1-2.3c-0.2-0.2-0.7-0.5-0.9-0.5c-0.2,0-0.7,0-1.2,0.2
		c-0.5,0.2-0.7,0.7-0.9,0.9c-0.2,0.5-0.2,1.2-0.7,1.6l0,0c0.7-1.8,0.7-3.7,0.2-5.5c-0.2-0.2-0.5-0.5-0.7-0.9
		c-0.5-0.5-0.5-1.2-0.9-1.8c0-0.2-0.7-1.4-0.9-1.4C20.5,0.2,20.3,0,19.9,0s-0.7,0-1.2,0.2C18.2,0.5,18,0.9,18,1.4
		c-0.2,0.2-1.4,2.5-1.6,3c-0.5,0.9-0.7,1.8-0.9,2.8v0.2c0,1.2,0,2.1,0.5,3.2c0.2,0.2,0.5,0.7,0.7,1.2c0.2,0.5,0.7,0.7,1.2,0.9
		c0.9,0.5,1.8,0.7,2.8,0.2c0.7-0.2,1.2-0.7,1.6-1.2v-0.2c-0.2,0.9-0.2,1.6-0.5,2.3v0.2c0,0.9,0,2.1,0.5,3c0.2,0.5,0.5,0.9,0.7,1.4
		c0.2,0.5,0.7,0.7,1.2,0.9c0.9,0.5,1.8,0.7,2.8,0.2c0.5-0.2,0.9-0.5,1.2-0.7c0.5-0.2,0.7-0.7,0.9-1.2C30.3,16,30.3,13.6,29.6,11.6z"
		/>
	<path class="st0" d="M3.7,19.2c0.9,0.5,1.8,0.2,2.8-0.2c0.5-0.2,0.7-0.7,1.2-0.9c0.2-0.5,0.5-0.9,0.7-1.4c0.7-2.1,0.7-4.2-0.5-6
		c0.2,0.2,0.5,0.7,0.7,0.9C9,11.8,9.2,12,9.7,12.3c0.9,0.5,1.8,0.2,2.8-0.2c0.5-0.2,0.9-0.5,1.2-0.9c0.2-0.2,0.5-0.5,0.7-0.7
		c0.2-0.2,0.2-0.5,0.2-0.7c0.7-2.1,0.7-4.2-0.5-6c-0.5-0.9-0.9-1.4-1.4-1.6c-0.9-0.7-1.8-2.8-3.5-1.2C8.5,1.6,8.3,2.3,7.8,3
		C7.6,3.5,7.1,3.7,7.1,4.2c-0.5,1.2-0.7,2.1-0.5,3v0.2c0,0.7,0.2,1.4,0.5,2.1C6.7,8.6,6,7.2,5.8,6.9S5.5,6.5,5.3,6.5
		C5.1,6,4.6,6,4.4,5.8C3.9,5.8,3,6,2.5,6.9s-2.1,2.3-2.3,4.6c-0.7,3.7,0.7,5.5,2.1,6.9C2.7,18.7,3.2,19,3.7,19.2z"/>
	<path class="st0" d="M25.9,21.5L25.9,21.5c-0.7-0.7-1.2-1.2-2.1-1.6L21.5,19c-0.2-0.2-0.7-0.2-0.9-0.5c0-0.2-0.2-0.5-0.5-0.7
		c-0.7-0.7-1.6-1.4-2.8-1.8c-0.5-0.2-1.2-0.5-1.6-0.5c-2.1-0.2-3.9,0.7-4.6,1.4c-0.2,0.5-0.5,0.7-0.7,0.9c-0.2,0.2-0.5,0.5-0.7,0.7
		C9,19,8.3,19.2,7.6,19.4l0,0c-1.4,0.2-2.3,0.7-3.2,1.4c-1.2,0.9-1.6,2.1-2.1,3.2c-0.2,1.4,0,2.5,0.5,3.7c0.7,1.2,1.4,2.1,2.5,2.5
		C6.4,30.7,7.8,31,9,30.7c1.8-0.5,3.5-0.5,5.5-0.7c2.1,0,3.9,0.2,6,0.7l0,0c1.2,0.2,2.3,0,3.5-0.5c1.2-0.5,1.8-1.4,2.5-2.3
		c0.5-1.2,0.7-2.1,0.7-3.5C27.3,23.6,26.8,22.4,25.9,21.5z"/>
</g>
</svg>
