<?xml version="1.0" encoding="utf-8"?>
<!-- Generator: Adobe Illustrator 19.2.0, SVG Export Plug-In . SVG Version: 6.00 Build 0)  -->
<svg version="1.1" id="Layer_1" xmlns="http://www.w3.org/2000/svg" xmlns:xlink="http://www.w3.org/1999/xlink" x="0px" y="0px"
	 viewBox="0 0 10 11.4" style="enable-background:new 0 0 10 11.4;" xml:space="preserve">
<style type="text/css">
	.st0{fill:#FFFFFF;}
</style>
<g id="XMLID_14_">
	<g id="XMLID_101_">
		<path id="XMLID_660_" class="st0" d="M8.4,7.3C7.4,7,7,6.6,7,6.6c-1-1.3-2.6-0.9-3-0.4c-0.4,0.4-0.5,1-1.5,1.2
			C1.6,7.5,1.2,8,1,8.3c-0.3,0.3-0.5,1.3,0.2,2.3c0.8,1.3,2.8,0.6,2.8,0.6c0.5-0.1,1.8-0.4,3-0.1c1.2,0.3,2.2,0.2,2.9-1.2
			C10.4,8.4,9.4,7.6,8.4,7.3z"/>
		<path id="XMLID_658_" class="st0" d="M1.1,7c0.4,0.3,1,0.3,1.6-0.2c0.6-0.5,0.6-1.7,0.3-2C2.9,4.7,2.8,4.5,2.7,4.3
			c0.2,0.2,0.5,0.4,0.9,0.4c1,0,1.3-0.8,1.4-1.6c0,0.2,0.1,0.3,0.1,0.4C5.2,4.1,6,4.8,6.5,4.7c1.1-0.3,1.3-1.1,1.3-1.9
			C8,2,7.6,1.5,7.5,1.4C7.3,1.2,7.3,0.8,6.9,0.3C6.5-0.2,6,0.1,5.8,0.3S5.2,1.7,5.2,1.9C5.1,2.1,5.1,2.2,5,2.4
			C4.9,1.8,4.4,1.2,4.1,0.9C3.8,0.5,3.3,0.2,3,0.7C2.6,1.2,2.7,0.9,2.4,1.6C2.1,2.2,2.1,2.8,2.2,3.4c0-0.1-0.1-0.1-0.1-0.2
			C1.9,2.7,1.7,2.2,1,2.6C0.2,2.9-0.1,4.1,0,5C0.3,6.7,1.1,7,1.1,7z"/>
		<path id="XMLID_102_" class="st0" d="M7.6,6.1c0.2,0.4,1,1.2,1.8,0.6c0.9-0.8,0.5-2.6,0.5-2.7C9.8,3.7,9.6,2.8,9,2.6
			C8.3,2.5,8.3,2.8,8.1,3.4C7.9,3.9,7.7,3.9,7.5,4.8C7.2,5.6,7.6,6.1,7.6,6.1z"/>
	</g>
</g>
</svg>
