<?xml version="1.0" encoding="utf-8"?>
<!-- Generator: Adobe Illustrator 19.2.0, SVG Export Plug-In . SVG Version: 6.00 Build 0)  -->
<svg version="1.1" id="Layer_1" xmlns="http://www.w3.org/2000/svg" xmlns:xlink="http://www.w3.org/1999/xlink" x="0px" y="0px"
	 viewBox="0 0 15 16.7" style="enable-background:new 0 0 15 16.7;" xml:space="preserve">
<style type="text/css">
	.st0{fill:#FFFFFF;}
	.st1{fill:#F58220;}
</style>
<g id="XMLID_14_">
	<path id="XMLID_20_" class="st0" d="M13.9,10.4c1.7-1.5,1-4.5,0.9-4.6l0,0c-0.3-1.3-1-2.1-2-2.3c-0.3,0-0.5-0.1-0.7-0.1
		c-0.1-0.5-0.4-1-0.7-1.3c0,0,0-0.1-0.1-0.1c-0.1-0.3-0.3-0.7-0.7-1.2C10.2,0.1,9.6,0,9.2,0C8.5,0,8,0.5,7.7,0.9
		C7.6,1.1,7.4,1.4,7.3,1.7l0,0C7.2,1.6,7.2,1.6,7.1,1.5C6.6,0.9,6,0.5,5.4,0.6C5,0.6,4.5,0.7,4,1.3C3.9,1.4,3.9,1.5,3.8,1.6
		C3.6,1.8,3.6,1.9,3.4,2.2c0,0.1-0.1,0.2-0.2,0.4C3.1,2.8,3,3,3,3.2c-0.3,0-0.7,0-1.1,0.3c-0.7,0.3-1.2,1-1.6,1.9
		C0,6.1-0.1,6.9,0,7.7c0.2,1.1,0.5,2,1,2.6c0.2,0.3,0.5,0.5,0.6,0.6C1.5,11,1.5,11,1.4,11.1c0,0,0,0.1-0.1,0.1
		C1,11.6,0.8,12.3,0.7,13c0,0.8,0.2,1.6,0.7,2.4c0.6,1,1.6,1.5,2.9,1.5c0.1,0,0.2,0,0.2,0c0.8,0,1.5-0.3,1.7-0.3
		C7,16.2,8.5,16,9.7,16.3c0.7,0.2,1.7,0.3,2.7,0c1-0.3,1.7-1,2.2-2.1c0.6-1.2,0.4-2.2,0.1-2.7C14.5,11.1,14.2,10.7,13.9,10.4z"/>
	<g id="XMLID_101_">
		<path id="XMLID_660_" class="st1" d="M11.9,10.5c-1.3-0.4-1.9-1-1.9-1C8.7,7.9,6.7,8.4,6.1,9s-0.7,1.3-1.9,1.5
			c-1.2,0.3-1.6,0.9-2,1.3c-0.3,0.4-0.6,1.6,0.2,2.9C3.5,16.4,6,15.4,6,15.4c0.6-0.2,2.4-0.5,3.9-0.1s2.9,0.3,3.7-1.5
			C14.5,12,13.2,10.8,11.9,10.5z"/>
		<path id="XMLID_658_" class="st1" d="M2.4,10.1c0.5,0.3,1.3,0.4,2-0.2c0.8-0.7,0.7-2.1,0.4-2.6c0-0.2-0.2-0.5-0.3-0.7
			c0.3,0.3,0.6,0.5,1.2,0.5c1.4,0,1.7-1.1,1.8-2c0,0.2,0.1,0.4,0.1,0.5c0.2,0.7,1.1,1.7,1.9,1.5c1.5-0.4,1.7-1.5,1.7-2.5
			c0.1-1-0.3-1.6-0.5-1.8s-0.3-0.7-0.8-1.4S8.8,1.1,8.5,1.5s-0.8,1.8-0.8,2C7.6,3.7,7.6,3.9,7.5,4.1c-0.1-0.8-0.8-1.6-1.2-2
			c-0.4-0.5-1-0.9-1.5-0.3C4.3,2.5,4.6,2.1,4.1,3.1C3.7,3.8,3.7,4.7,3.9,5.4c0-0.1-0.1-0.2-0.1-0.2C3.5,4.6,3.2,3.9,2.3,4.4
			c-1,0.5-1.4,2-1.2,3.2C1.4,9.7,2.4,10.1,2.4,10.1z"/>
		<path id="XMLID_102_" class="st1" d="M10.9,8.9c0.2,0.5,1.3,1.6,2.3,0.7c1.2-1,0.7-3.3,0.6-3.6c-0.1-0.2-0.3-1.4-1.2-1.6
			s-0.8,0.2-1.1,0.9S11,6,10.7,7.1C10.4,8.3,10.9,8.9,10.9,8.9z"/>
	</g>
</g>
</svg>
